<?xml version="1.0" encoding="UTF-8"?>
<svg version="1.1" xmlns="http://www.w3.org/2000/svg" width="1536" height="1024">
<path d="M0 0 C4.71169217 2.45436722 9.08036444 5.48226118 13.5 8.41943359 C14.61829806 9.1548359 15.73695988 9.88968532 16.85595703 10.62402344 C22.85620245 14.57086827 28.81985272 18.56922552 34.75692749 22.61045837 C37.7616372 24.65460845 40.77210206 26.69020819 43.78253174 28.72592163 C45.98067612 30.21880962 48.16871271 31.72577317 50.35693359 33.2331543 C51.71405415 34.15270352 53.07161747 35.07159973 54.4296875 35.98974609 C55.04839722 36.42221146 55.66710693 36.85467682 56.30456543 37.30024719 C59.57055433 39.54831548 59.57055433 39.54831548 63.39892578 39.94897461 C65.79091121 38.78207818 67.92361729 37.42008547 70.125 35.91943359 C71.18332031 35.19884766 72.24164063 34.47826172 73.33203125 33.73583984 C74.5973398 32.86096154 75.86157408 31.98452844 77.125 31.10693359 C77.86411621 30.59372559 78.60323242 30.08051758 79.36474609 29.55175781 C87.64729542 23.78991101 95.8967579 17.98131095 104.13061523 12.15014648 C106.87749219 10.20732347 109.63026912 8.27295459 112.38330078 6.33886719 C113.90898024 5.25972806 115.42235639 4.16323764 116.93359375 3.06396484 C121.28246481 -0.0235136 124.59086172 -1.99748411 130.125 -1.89306641 C133.27655273 -0.76326448 135.39756346 0.01105226 137.27667522 2.84192944 C138.35527007 5.72174844 138.37984065 8.08275038 138.38569641 11.15950012 C138.39278122 12.40017746 138.39986603 13.6408548 138.40716553 14.91912842 C138.40487175 16.2913822 138.40236206 17.66363564 138.3996582 19.03588867 C138.40400618 20.48323327 138.40918961 21.93057556 138.41514587 23.37791443 C138.42854025 27.30780023 138.4291139 31.23758988 138.42658257 35.16749406 C138.42551283 38.45016144 138.43039651 41.73280937 138.435188 45.01547259 C138.44628541 52.76252712 138.44671974 60.50953316 138.44067383 68.2565918 C138.43463748 76.24207219 138.44693583 84.22737624 138.4682439 92.21282655 C138.48587529 99.07326848 138.4918587 105.93365436 138.48860615 112.79411811 C138.48679507 116.88949004 138.48941163 120.98473628 138.50332069 125.08008766 C138.51591893 128.93379774 138.51393622 132.78723372 138.50090981 136.64093971 C138.49854853 138.05221653 138.50126261 139.46351275 138.50953293 140.8747673 C138.59152592 155.95864796 138.59152592 155.95864796 133.65893555 161.86132812 C132.87450073 162.48177002 132.87450073 162.48177002 132.07421875 163.11474609 C131.45981934 163.60104492 130.84541992 164.08734375 130.21240234 164.58837891 C126.19897715 167.50808706 122.09051397 170.2654589 117.9375 172.98193359 C116.17315224 174.14595843 114.40882954 175.31002127 112.64453125 176.47412109 C111.74629639 177.06459229 110.84806152 177.65506348 109.92260742 178.26342773 C102.88461591 182.90116872 95.88569556 187.59803511 88.87890625 192.28271484 C86.81510417 193.66162109 84.75130208 195.04052734 82.6875 196.41943359 C81.63884766 197.12132812 80.59019531 197.82322266 79.50976562 198.54638672 C78.49720703 199.2225 77.48464844 199.89861328 76.44140625 200.59521484 C75.53849854 201.19889893 74.63559082 201.80258301 73.70532227 202.42456055 C72.85381592 202.97974365 72.00230957 203.53492676 71.125 204.10693359 C69.84677368 205.01995239 69.84677368 205.01995239 68.54272461 205.95141602 C67.74487549 206.33273682 66.94702637 206.71405762 66.125 207.10693359 C63.97389221 206.17915344 63.97389221 206.17915344 62.125 205.10693359 C62.15617165 203.95633957 62.15617165 203.95633957 62.18797302 202.78250122 C62.37134189 195.51515316 62.48128028 188.25198569 62.51103115 180.98251534 C62.52885532 177.24556665 62.57395616 173.51329736 62.68383789 169.77783203 C63.80235298 154.2322743 63.80235298 154.2322743 59.74194336 139.84335327 C56.37214915 136.38950701 52.47409829 134.51829758 47.9972229 132.84680176 C45.36943814 131.8083494 43.18757111 130.29253379 40.8828125 128.67333984 C39.33917481 127.67106196 37.7949079 126.66975247 36.25 125.66943359 C35.41194824 125.12577148 34.57389648 124.58210937 33.71044922 124.02197266 C31.18263421 122.38259273 28.6539148 120.74461633 26.125 119.10693359 C24.60416167 118.12126422 23.08332815 117.13558743 21.5625 116.14990234 C14.99932809 111.89857544 8.42932859 107.65812745 1.85107422 103.43017578 C1.20311386 103.01367767 0.5551535 102.59717957 -0.11244202 102.1680603 C-1.6999393 101.14765044 -3.28746662 100.1272873 -4.875 99.10693359 C-4.88530746 100.33024384 -4.89561493 101.55355408 -4.90623474 102.81393433 C-5.00383203 114.32138813 -5.10655292 125.8287862 -5.21433926 137.33614922 C-5.26959221 143.25272605 -5.323016 149.16930781 -5.37231445 155.0859375 C-5.41992301 160.79178407 -5.47226452 166.49756909 -5.52794075 172.20334244 C-5.54838023 174.38430379 -5.56709063 176.56528204 -5.58407402 178.74627304 C-5.60808278 181.79217406 -5.63814215 184.83795801 -5.66967773 187.88378906 C-5.6754332 188.79297089 -5.68118866 189.70215271 -5.68711853 190.6388855 C-5.76094784 196.87882927 -5.76094784 196.87882927 -6.875 199.10693359 C-12.7200896 198.70757965 -16.0804238 196.23555439 -20.625 192.85693359 C-21.36161865 192.32334229 -22.0982373 191.78975098 -22.85717773 191.23999023 C-25.20338567 189.53827682 -27.53904333 187.8226819 -29.875 186.10693359 C-32.14285326 184.45868592 -34.41380168 182.81481029 -36.68603516 181.17260742 C-38.18623132 180.08772256 -39.68460984 179.00031976 -41.18115234 177.91040039 C-44.8858622 175.2210285 -48.614456 172.58875159 -52.42578125 170.05224609 C-53.15337646 169.56570557 -53.88097168 169.07916504 -54.63061523 168.57788086 C-55.99712133 167.66976271 -57.36994382 166.77104421 -58.75024414 165.8840332 C-63.52789346 162.70580618 -67.11196362 159.39030881 -68.46699524 153.55955505 C-69.01013558 148.96338814 -69.02244984 144.43073251 -69.02026367 139.80639648 C-69.02362228 138.78288589 -69.0269809 137.75937531 -69.03044128 136.70484924 C-69.03992119 133.32975035 -69.04189279 129.95470121 -69.04296875 126.57958984 C-69.04618295 124.22838826 -69.04954715 121.87718688 -69.05305481 119.52598572 C-69.05903835 114.60089657 -69.06089546 109.67582495 -69.06030273 104.75073242 C-69.06020106 98.44478579 -69.07386263 92.13895162 -69.09107494 85.83303165 C-69.10220037 80.97826116 -69.10422179 76.12351783 -69.10369301 71.26873589 C-69.10487194 68.94396006 -69.10928884 66.6191835 -69.11702538 64.29442024 C-69.12683778 61.04182195 -69.12394234 57.78946757 -69.11791992 54.53686523 C-69.12353943 53.58028015 -69.12915894 52.62369507 -69.13494873 51.63812256 C-69.10733291 45.75973259 -68.97823206 40.0766508 -65.46044922 35.10961914 C-60.94044312 30.86886438 -56.17257116 27.32637261 -51 23.91943359 C-49.31691519 22.79040674 -47.63464075 21.66017101 -45.953125 20.52880859 C-45.10814453 19.96226562 -44.26316406 19.39572266 -43.39257812 18.81201172 C-39.47050699 16.15571374 -35.61004407 13.41473848 -31.75 10.66943359 C-10.20195925 -4.59787667 -10.20195925 -4.59787667 0 0 Z " fill="#00DCDB" transform="translate(409.875,395.89306640625)"/>
<path d="M0 0 C2.33440386 2.24794446 2.66158677 4.10034606 2.81892776 7.28596115 C2.82338976 8.90527983 2.82338976 8.90527983 2.82794189 10.55731201 C2.83365204 11.79661469 2.83936218 13.03591736 2.84524536 14.31277466 C2.84649071 15.68865957 2.84761581 17.06454459 2.84863281 18.44042969 C2.85326154 19.88762539 2.85828628 21.33481988 2.86367798 22.78201294 C2.87680007 26.71606367 2.88324675 30.65009733 2.88768864 34.58416653 C2.89062012 37.04277971 2.8947251 39.50138824 2.89919281 41.95999908 C2.91286822 49.65455439 2.92253425 57.34909903 2.9263947 65.04366565 C2.93087349 73.92169221 2.94841282 82.79956465 2.9773953 91.67754436 C2.99902604 98.54220416 3.00909975 105.40682066 3.01043582 112.27151418 C3.011483 116.37026598 3.01737199 120.46887293 3.03525543 124.56758881 C3.05175991 128.42537365 3.05388019 132.28290512 3.04511642 136.14071274 C3.04434727 137.55360722 3.04867269 138.96651546 3.05857468 140.37937546 C3.15811269 155.47182384 3.15811269 155.47182384 -1.77856445 161.37939453 C-2.301521 161.79302246 -2.82447754 162.20665039 -3.36328125 162.6328125 C-3.97768066 163.11911133 -4.59208008 163.60541016 -5.22509766 164.10644531 C-9.23852285 167.02615347 -13.34698603 169.78352531 -17.5 172.5 C-19.26434776 173.66402484 -21.02867046 174.82808767 -22.79296875 175.9921875 C-23.69120361 176.58265869 -24.58943848 177.17312988 -25.51489258 177.78149414 C-32.55288409 182.41923512 -39.55180444 187.11610152 -46.55859375 191.80078125 C-48.62239583 193.1796875 -50.68619792 194.55859375 -52.75 195.9375 C-53.79865234 196.63939453 -54.84730469 197.34128906 -55.92773438 198.06445312 C-57.44657227 199.07862305 -57.44657227 199.07862305 -58.99609375 200.11328125 C-59.89900146 200.71696533 -60.80190918 201.32064941 -61.73217773 201.94262695 C-62.58368408 202.49781006 -63.43519043 203.05299316 -64.3125 203.625 C-65.59072632 204.5380188 -65.59072632 204.5380188 -66.89477539 205.46948242 C-67.69262451 205.85080322 -68.49047363 206.23212402 -69.3125 206.625 C-71.46360779 205.69721985 -71.46360779 205.69721985 -73.3125 204.625 C-73.35421666 190.40917408 -73.38833882 176.1934177 -73.35864258 161.97753906 C-73.35688743 161.11706089 -73.35513227 160.25658272 -73.35332394 159.37002945 C-73.34581598 155.78683816 -73.33806879 152.20364829 -73.32902336 148.62046051 C-73.30037603 136.89791914 -73.32479452 125.1773976 -73.41522694 113.45515442 C-73.47540254 105.37647113 -73.49581985 97.29824572 -73.48968029 89.21934509 C-73.48771771 84.31501514 -73.50565675 79.4124908 -73.56985474 74.50854492 C-73.6301294 69.86620677 -73.6385176 65.22658023 -73.60839462 60.58397675 C-73.60646993 58.87391272 -73.62338512 57.1637059 -73.66070938 55.45404816 C-73.92814536 42.49523088 -73.92814536 42.49523088 -69.97064209 37.91412354 C-67.17048222 35.85091932 -64.39036914 34.23536164 -61.3125 32.625 C-59.46075731 31.36139779 -57.62251447 30.07754979 -55.8046875 28.765625 C-53.9330306 27.4676838 -52.06061722 26.17083286 -50.1875 24.875 C-43.08179142 19.94768383 -35.99243466 14.99974246 -28.9375 10 C-19.77813203 3.52769425 -19.77813203 3.52769425 -16 0.9375 C-15.36449219 0.50050781 -14.72898437 0.06351562 -14.07421875 -0.38671875 C-9.32991936 -3.04815499 -4.6821615 -2.78398792 0 0 Z " fill="#0078FD" transform="translate(545.3125,396.375)"/>
<path d="M0 0 C9.24 0 18.48 0 28 0 C35.4216724 18.40960297 42.70019629 36.86789803 49.875 55.375 C50.28255524 56.4254953 50.69011047 57.4759906 51.11001587 58.55831909 C55.81085838 70.67945386 60.47249295 82.81295862 65 95 C65.36609375 93.90429688 65.7321875 92.80859375 66.109375 91.6796875 C70.67348551 78.23147267 75.88444747 65.07265541 81.20986938 51.91116333 C85.00474568 42.5278191 88.75411216 33.12622292 92.51010132 23.7272644 C94.50042166 18.74742206 96.49246515 13.76826921 98.484375 8.7890625 C99.64453125 5.88867188 100.8046875 2.98828125 102 0 C110.91 0 119.82 0 129 0 C129 40.92 129 81.84 129 124 C122.07 124 115.14 124 108 124 C107.67 96.94 107.34 69.88 107 42 C99.8795231 59.67709807 99.8795231 59.67709807 92.76220703 77.35546875 C87.99237062 89.19483392 83.19572166 101.02255574 78.3046875 112.8125 C77.88293243 113.83303467 77.46117737 114.85356934 77.02664185 115.9050293 C76.64128265 116.82968994 76.25592346 117.75435059 75.85888672 118.70703125 C75.52235077 119.5163208 75.18581482 120.32561035 74.83908081 121.15942383 C74 123 74 123 73 124 C70.13732433 124.07325168 67.299281 124.09238205 64.4375 124.0625 C63.63119141 124.05798828 62.82488281 124.05347656 61.99414062 124.04882812 C59.99606244 124.03700518 57.99802217 124.01906914 56 124 C52.05184013 115.40809874 48.63921415 106.61150451 45.1875 97.8125 C44.61021285 96.34432758 44.03273932 94.87622842 43.45507812 93.40820312 C42.5157373 91.02090557 41.57658265 88.63353606 40.63815308 86.24588013 C36.76473398 76.39309993 32.87593562 66.54638822 28.98828125 56.69921875 C28.64340353 55.8256605 28.29852581 54.95210224 27.94319725 54.05207253 C25.96229459 49.03465061 23.9812172 44.01729772 22 39 C22.00222061 40.05013779 22.00444122 41.10027557 22.00672913 42.18223572 C22.02696015 52.05645581 22.04197195 61.93067172 22.05181217 71.8049078 C22.0570411 76.88191018 22.06413892 81.95889589 22.07543945 87.03588867 C22.08626799 91.93120552 22.09227676 96.82650629 22.09487724 101.72183418 C22.09673155 103.59382951 22.10035228 105.46582391 22.10573006 107.33781242 C22.11294004 109.95040699 22.11399096 112.56293427 22.11352539 115.17553711 C22.11712067 115.95740387 22.12071594 116.73927063 22.12442017 117.54483032 C22.11405216 122.88594784 22.11405216 122.88594784 21 124 C14.07 124 7.14 124 0 124 C0 83.08 0 42.16 0 0 Z " fill="#FBFBFB" transform="translate(624,436)"/>
<path d="M0 0 C7.59 0 15.18 0 23 0 C22.98952637 2.30524658 22.97905273 4.61049316 22.96826172 6.9855957 C22.9349914 14.63700406 22.91297842 22.28841576 22.89637566 29.93987751 C22.88597753 34.57494778 22.87189159 39.20994339 22.84912109 43.8449707 C22.82725017 48.32537244 22.81540158 52.80570275 22.81024551 57.28615379 C22.80657517 58.98800975 22.79940856 60.68986219 22.78853989 62.39168739 C22.29559058 80.81963523 22.29559058 80.81963523 30 97 C36.50577373 103.18048504 43.63067308 103.96750343 52.296875 104.01171875 C59.32525851 103.5755602 66.08408135 101.21051661 70.89453125 95.9140625 C75.77087292 88.96141963 77.29425295 82.12135946 77.31884766 73.67797852 C77.32889328 72.87716354 77.3389389 72.07634857 77.34928894 71.25126648 C77.3799657 68.62715313 77.39711258 66.00314106 77.4140625 63.37890625 C77.43278665 61.55044187 77.45236099 59.72198602 77.4727478 57.89353943 C77.52394329 53.09816529 77.56363617 48.30276318 77.60089111 43.50726318 C77.64100987 38.60698599 77.69206621 33.70682391 77.7421875 28.80664062 C77.83879778 19.20450015 77.92223825 9.60231164 78 0 C85.26 0 92.52 0 100 0 C100.04534963 10.61460416 100.08197275 21.229143 100.10362434 31.84382248 C100.11402079 36.77368547 100.12810362 41.70347821 100.15087891 46.63330078 C100.17275586 51.3989963 100.18459968 56.16462463 100.18975449 60.93036652 C100.19342376 62.74024766 100.20058821 64.55012551 100.21146011 66.35997772 C100.40120957 99.28454652 100.40120957 99.28454652 89.0859375 111.125 C76.07265436 122.82233316 60.84702399 126.00280119 43.86328125 125.3515625 C30.75352203 124.55154265 17.73628171 120.08001122 8.68359375 110.19921875 C1.71413949 101.09526806 -0.32807447 91.04596138 -0.22705078 79.80834961 C-0.22734283 78.93896759 -0.22763489 78.06958557 -0.22793579 77.17385864 C-0.22655529 74.33324801 -0.21105508 71.4929079 -0.1953125 68.65234375 C-0.19157781 66.66980635 -0.18873299 64.68726709 -0.18673706 62.70472717 C-0.17913651 57.51143205 -0.15951906 52.31825054 -0.1373291 47.125 C-0.11679325 41.81577084 -0.10771885 36.50652314 -0.09765625 31.19726562 C-0.07626953 20.79811939 -0.04111686 10.39908696 0 0 Z " fill="#FBFBFB" transform="translate(1075,436)"/>
<path d="M0 0 C6.93 0 13.86 0 21 0 C21.02311906 16.01993591 21.04097926 32.03986498 21.05181217 48.0598135 C21.05697509 55.4976451 21.06401771 62.93546617 21.07543945 70.37329102 C21.08538641 76.85381342 21.09185346 83.33432819 21.09408849 89.81485802 C21.09539558 93.24830542 21.0984813 96.681731 21.10573006 100.11517143 C21.11374416 103.94193821 21.11399113 107.76868335 21.11352539 111.59545898 C21.11712067 112.74200455 21.12071594 113.88855011 21.12442017 115.06983948 C21.1230455 116.10615509 21.12167084 117.1424707 21.12025452 118.21018982 C21.12117631 119.11631232 21.1220981 120.02243483 21.12304783 120.95601559 C21 123 21 123 20 124 C18.43827255 124.08685603 16.87270656 124.10702219 15.30859375 124.09765625 C14.36435547 124.09443359 13.42011719 124.09121094 12.44726562 124.08789062 C11.45404297 124.07951172 10.46082031 124.07113281 9.4375 124.0625 C8.44041016 124.05798828 7.44332031 124.05347656 6.41601562 124.04882812 C3.94398513 124.03700023 1.47198528 124.01906415 -1 124 C-1 120.7 -1 117.4 -1 114 C-1.70125 114.7425 -2.4025 115.485 -3.125 116.25 C-10.21323537 123.03005122 -17.4915462 125.01442483 -27 126 C-38.50855602 125.60751899 -49.41574157 121.64896859 -57.58984375 113.39453125 C-67.62427949 101.41959394 -68.95283453 84.9771472 -68 70 C-66.42761263 57.1543947 -61.51689708 44.88120162 -51.23046875 36.5703125 C-41.19450862 29.66164748 -29.09000381 28.63818631 -17.3125 30.625 C-10.8283564 32.26670485 -5.65450867 36.34549133 -1 41 C-0.67 27.47 -0.34 13.94 0 0 Z M-41.75 58.10546875 C-46.93971757 65.97113445 -47.91211517 75.94687207 -46.52734375 85.13671875 C-44.63788291 92.70488705 -41.66397482 98.60783478 -35 103 C-28.56598887 106.16271011 -22.79865721 107.10974834 -15.875 104.75 C-9.02003972 101.85744451 -6.22693442 98.11021066 -3.015625 91.53515625 C0.8254193 81.94731874 0.10046824 70.65084417 -3.8828125 61.26953125 C-7.21882062 54.49253573 -11.96355532 51.46679957 -19 49 C-28.44378432 47.35018226 -35.94057432 50.60688941 -41.75 58.10546875 Z " fill="#F9FAFA" transform="translate(936,436)"/>
<path d="M0 0 C2.52079158 2.00211019 4.74831864 4.11196577 6.8984375 6.5078125 C7.5790625 7.2296875 8.2596875 7.9515625 8.9609375 8.6953125 C15.14507204 17.672282 16.09438439 27.10766017 16.1484375 37.6953125 C16.1690625 38.68595703 16.1896875 39.67660156 16.2109375 40.69726562 C16.27316946 52.56023216 12.90473148 62.82244434 4.89453125 71.73828125 C-5.20388377 81.36700254 -17.36684355 84.86165258 -31.02807617 84.81274414 C-37.10101293 84.66469284 -42.43505245 83.64787377 -48.1015625 81.5078125 C-49.13990234 81.12496094 -49.13990234 81.12496094 -50.19921875 80.734375 C-59.93326364 76.51564382 -67.85876256 68.14333012 -72.1015625 58.5078125 C-74.80648252 51.34365028 -75.61989003 44.7617855 -75.5390625 37.1328125 C-75.53076416 36.12130127 -75.52246582 35.10979004 -75.51391602 34.06762695 C-75.22456548 21.27750932 -71.57212458 10.8492936 -62.29296875 1.73046875 C-45.09284008 -12.32285883 -17.80809346 -12.79354007 0 0 Z M-49.1015625 18.5078125 C-54.19897591 25.75884434 -54.45698759 34.93529793 -54.1015625 43.5078125 C-52.76032588 50.17454746 -50.4831867 55.17626132 -45.1015625 59.5078125 C-44.3178125 60.2296875 -43.5340625 60.9515625 -42.7265625 61.6953125 C-37.62760469 65.21602146 -32.19727888 66.12771586 -26.1015625 65.5078125 C-19.02776309 63.59937227 -13.35383272 60.5873182 -9.1015625 54.5078125 C-4.4782235 45.68642682 -3.52538073 35.9916785 -6.3515625 26.4140625 C-9.49392379 18.42722756 -14.26531148 13.66869062 -22.0390625 10.1953125 C-32.24909981 7.90326331 -42.20144068 10.40689026 -49.1015625 18.5078125 Z " fill="#FBFBFB" transform="translate(1045.1015625,476.4921875)"/>
<path d="M0 0 C11.09711244 12.53267318 11.98515814 26.58323425 11.18017578 42.57324219 C10.34583394 53.81085458 5.42408336 62.9685342 -2.5625 70.8125 C-13.66425961 80.31627906 -27.62690999 81.90687671 -41.69042969 81.22216797 C-51.45818461 80.28256364 -59.97903653 75.69864379 -67 69 C-67.63550781 68.40445313 -68.27101563 67.80890625 -68.92578125 67.1953125 C-79.48822254 56.2936065 -80.48223671 42.66958906 -80.2734375 28.32421875 C-79.88788472 17.48865878 -76.39900642 8.02029703 -69 0 C-49.99789154 -16.35943113 -18.73983725 -18.37556396 0 0 Z M-53.74609375 14.828125 C-57.3311027 21.03767322 -58.53472287 26.81212689 -58.4375 33.9375 C-58.42847656 34.72874268 -58.41945313 35.51998535 -58.41015625 36.33520508 C-58.16285418 44.6636174 -56.35494183 50.04646302 -50.25 55.875 C-44.36918749 60.57746789 -38.59687152 62.79967069 -31 62 C-24.4979487 60.60918689 -19.37232106 58.08779178 -15 53 C-9.29886022 43.85045044 -8.49729849 33.42736541 -10.61328125 22.96875 C-13.06480613 15.97056443 -17.53922286 11.46354556 -23.98046875 7.90625 C-34.55914523 3.34538349 -46.36695774 5.92910724 -53.74609375 14.828125 Z " fill="#FBFBFB" transform="translate(846,480)"/>
<path d="M0 0 C7.26 0 14.52 0 22 0 C22 40.92 22 81.84 22 124 C14.74 124 7.48 124 0 124 C0 83.08 0 42.16 0 0 Z " fill="#FDFDFD" transform="translate(1193,436)"/>
<path d="M0 0 C0.66 0.33 1.32 0.66 2 1 C-0.80804268 3.96404505 -3.18315774 6.44499019 -7 8 C-7 7.01 -7 6.02 -7 5 C-5.46875 3.61328125 -5.46875 3.61328125 -3.5 2.3125 C-2.8503125 1.87550781 -2.200625 1.43851562 -1.53125 0.98828125 C-1.0259375 0.66214844 -0.520625 0.33601563 0 0 Z " fill="#017DE5" transform="translate(515,407)"/>
</svg>
