<?xml version="1.0" encoding="UTF-8"?>
<svg version="1.1" xmlns="http://www.w3.org/2000/svg" width="2000" height="2000">
<path d="M0 0 C1.18765961 -0.00358521 2.37531921 -0.00717041 3.59896851 -0.01086426 C18.9289693 -0.03577536 34.01089272 0.62623699 49.25 2.3125 C49.25 3.6325 49.25 4.9525 49.25 6.3125 C48.53682617 6.54324219 47.82365234 6.77398437 47.08886719 7.01171875 C26.61099611 13.66456162 6.60102971 20.83899001 -12.75 30.3125 C-13.37261719 30.61623535 -13.99523438 30.9199707 -14.63671875 31.23291016 C-18.64644044 33.19608779 -22.63622661 35.19608568 -26.61376953 37.22363281 C-28.0638451 37.96275705 -29.51539756 38.69898954 -30.96826172 39.43261719 C-61.30681183 54.79374374 -89.70212431 74.19454025 -115.39453125 96.46484375 C-116.02343262 97.00882813 -116.65233398 97.5528125 -117.30029297 98.11328125 C-118.53093599 99.18058148 -119.75801176 100.25201307 -120.98095703 101.328125 C-123.7573312 103.74222494 -126.32474516 105.90705145 -129.75 107.3125 C-129.75 107.9725 -129.75 108.6325 -129.75 109.3125 C-131.16381836 110.70727539 -131.16381836 110.70727539 -133.15234375 112.34765625 C-138.12200342 116.57564098 -142.71179185 121.12726132 -147.3125 125.75 C-148.12396484 126.55759766 -148.93542969 127.36519531 -149.77148438 128.19726562 C-154.63956297 133.0732023 -159.27689832 138.07360221 -163.75 143.3125 C-164.73484935 144.44212843 -165.72049575 145.57106258 -166.70703125 146.69921875 C-173.35074353 154.3568447 -179.71091832 162.1675714 -185.75 170.3125 C-186.25144531 170.98796875 -186.75289062 171.6634375 -187.26953125 172.359375 C-235.48821223 237.58951278 -265.17023877 313.00404915 -275.75 393.3125 C-275.91661133 394.57642578 -276.08322266 395.84035156 -276.25488281 397.14257812 C-280.78345904 433.42744358 -280.70438198 471.08787784 -275.75 507.3125 C-275.60546387 508.41770996 -275.46092773 509.52291992 -275.31201172 510.66162109 C-270.77673948 544.79921292 -262.11471106 577.84874731 -250.75 610.3125 C-250.47800781 611.08980469 -250.20601562 611.86710937 -249.92578125 612.66796875 C-246.71241518 621.75347587 -242.95426225 630.52214388 -238.76123047 639.20019531 C-237.65651987 641.50776559 -236.57904183 643.8269461 -235.50390625 646.1484375 C-219.14717142 681.29079577 -198.51958223 714.90104144 -173.2265625 744.37890625 C-171.75 746.3125 -171.75 746.3125 -171.75 748.3125 C-171.09 748.3125 -170.43 748.3125 -169.75 748.3125 C-165.75 752.78308824 -165.75 752.78308824 -165.75 755.3125 C-165.09 755.3125 -164.43 755.3125 -163.75 755.3125 C-162.0234375 756.9921875 -162.0234375 756.9921875 -160.125 759.1875 C-159.49335937 759.90679688 -158.86171875 760.62609375 -158.2109375 761.3671875 C-156.75 763.3125 -156.75 763.3125 -156.75 765.3125 C-155.76 765.6425 -154.77 765.9725 -153.75 766.3125 C-152.3125 767.7734375 -152.3125 767.7734375 -150.75 769.6875 C-144.37516982 777.19443533 -137.32653019 784.11787833 -129.8359375 790.5078125 C-127.29903426 792.70266137 -124.84178374 794.9766895 -122.375 797.25 C-117.33022796 801.83991555 -112.14277794 806.1397749 -106.75 810.3125 C-106.12818848 810.7962207 -105.50637695 811.27994141 -104.86572266 811.77832031 C-95.68276618 818.91362298 -86.43185203 825.86387229 -76.75 832.3125 C-76.03537598 832.79154785 -75.32075195 833.2705957 -74.58447266 833.76416016 C-57.63324388 845.09202605 -40.18317827 855.50074627 -21.79394531 864.32958984 C-19.60476513 865.3823418 -17.42370695 866.45100357 -15.2421875 867.51953125 C45.45773409 897.03283963 112.93072799 911.48073963 180.25 912.3125 C181.62309326 912.33521973 181.62309326 912.33521973 183.02392578 912.35839844 C188.4358745 912.44259115 193.83869974 912.42813133 199.25 912.3125 C200.28423096 912.29364746 200.28423096 912.29364746 201.33935547 912.27441406 C225.99832037 911.7109777 251.08701915 908.1091697 275.25 903.3125 C275.9836377 903.16876953 276.71727539 903.02503906 277.47314453 902.87695312 C300.86575589 898.21025888 324.91686878 892.19192731 346.83984375 882.75 C349.50819421 881.62519706 352.18069345 880.54903293 354.87890625 879.5 C364.97732221 875.56594553 374.71795606 871.29892802 384.33203125 866.29931641 C386.24230999 865.3164566 388.16432307 864.36262479 390.09375 863.41796875 C403.86198137 856.67032612 417.56187473 849.52639597 430.47265625 841.23828125 C432.25 840.3125 432.25 840.3125 435.25 840.3125 C433.67369587 845.17199379 430.88619087 848.75439494 427.8125 852.75 C427.27753906 853.45302246 426.74257812 854.15604492 426.19140625 854.88037109 C424.55116397 857.02980415 422.90178367 859.17192831 421.25 861.3125 C420.77288574 861.93431152 420.29577148 862.55612305 419.80419922 863.19677734 C407.02683138 879.8251082 393.22610554 895.62625457 378.25 910.3125 C375.36319095 913.18424743 372.49884568 916.07659592 369.6484375 918.984375 C362.93481397 925.80542317 356.27264832 932.40443909 348.73828125 938.3203125 C346.23632351 940.32344978 343.90660742 942.44027633 341.5625 944.625 C335.48804551 950.15160021 328.9043791 954.95859238 322.29052734 959.81152344 C320.35949612 961.23195655 318.43819129 962.66448255 316.51953125 964.1015625 C269.96585979 998.82832077 217.81691563 1025.00225361 162.52148438 1042.58837891 C160.94798488 1043.08999106 159.37648735 1043.59791031 157.80664062 1044.11083984 C124.36708685 1055.00979843 89.94908977 1061.49290931 55.0625 1065.5625 C54.35658722 1065.64576538 53.65067444 1065.72903076 52.92337036 1065.81481934 C34.7797419 1067.92740269 16.63236205 1068.54873369 -1.625 1068.5625 C-2.56899658 1068.56350708 -3.51299316 1068.56451416 -4.4855957 1068.56555176 C-76.46504394 1068.51430582 -147.80447561 1053.03488729 -213.75 1024.3125 C-214.78012207 1023.86551758 -215.81024414 1023.41853516 -216.87158203 1022.95800781 C-231.60832732 1016.51198696 -245.76002075 1009.23918577 -259.75 1001.3125 C-260.56807129 1000.85375488 -261.38614258 1000.39500977 -262.22900391 999.92236328 C-274.74601253 992.89593657 -286.8049699 985.26723675 -298.75 977.3125 C-299.56001465 976.77866699 -300.3700293 976.24483398 -301.20458984 975.69482422 C-312.35050296 968.3395509 -322.77573553 960.44326758 -332.96240234 951.81201172 C-335.30949315 949.84317373 -337.71268461 947.95056417 -340.125 946.0625 C-344.56799733 942.53379293 -348.74910338 938.75332903 -352.9140625 934.90234375 C-354.37056422 933.57223267 -355.8304475 932.24448045 -357.33666992 930.97094727 C-364.18394018 925.16301959 -370.45227919 918.76058541 -376.78637695 912.40649414 C-378.80764268 910.3798702 -380.83419574 908.35864453 -382.86132812 906.33789062 C-389.03503584 900.16769994 -395.14568421 894.01269218 -400.75 887.3125 C-401.72216814 886.19375434 -402.69610731 885.07654503 -403.671875 883.9609375 C-426.70948141 857.36826889 -446.83944024 828.338127 -464.31542969 797.81445312 C-465.63732934 795.50900253 -466.97697345 793.21486995 -468.3203125 790.921875 C-481.9753325 767.30848284 -493.20370191 741.61317119 -501.91210938 715.76904297 C-502.82983576 713.07843607 -503.78204324 710.40120226 -504.734375 707.72265625 C-514.9833009 678.45455627 -523.12795112 647.99066437 -527.75 617.3125 C-528.02166992 615.52078369 -528.02166992 615.52078369 -528.29882812 613.69287109 C-528.86484864 609.88110748 -529.40747999 606.06692966 -529.9375 602.25 C-530.09275146 601.14043945 -530.24800293 600.03087891 -530.40795898 598.88769531 C-533.35127706 576.37524606 -534.12692485 553.87140138 -534.0625 531.1875 C-534.0605749 529.83524589 -534.05873455 528.48299165 -534.05697632 527.1307373 C-534.0196203 507.3541142 -533.48086092 487.92309183 -530.75 468.3125 C-530.49527178 466.33786264 -530.24054734 464.36322478 -529.98599243 462.38856506 C-523.73256693 414.54025523 -510.83173696 367.62704767 -491.75 323.3125 C-491.39470215 322.48621094 -491.0394043 321.65992188 -490.67333984 320.80859375 C-473.32504911 280.76553403 -451.49343762 241.63721063 -423.765625 207.79296875 C-422.20722388 205.87516893 -420.68168046 203.94386504 -419.171875 201.98828125 C-414.02566432 195.33072314 -408.75494448 188.94440701 -403.02734375 182.7734375 C-400.99097846 180.57290554 -399.01738147 178.33521297 -397.0625 176.0625 C-394.33345609 172.91802786 -391.44945775 169.99077528 -388.48046875 167.07421875 C-386.75548519 165.31808424 -385.15817536 163.49885605 -383.5625 161.625 C-376.89858061 153.91046269 -369.55769681 146.68444439 -361.796875 140.078125 C-359.29285151 137.9181658 -356.87002302 135.67762007 -354.4375 133.4375 C-349.03499945 128.51736557 -343.46013746 123.86992254 -337.75 119.3125 C-337.23630859 118.89919434 -336.72261719 118.48588867 -336.19335938 118.06005859 C-316.15187315 101.95053264 -295.00283441 87.20362454 -272.75 74.3125 C-271.91903809 73.82668457 -271.08807617 73.34086914 -270.23193359 72.84033203 C-256.85936862 65.04146942 -243.28574749 57.97057893 -229.23730469 51.47021484 C-227.09849205 50.47470547 -224.97225775 49.45912798 -222.8515625 48.42578125 C-173.00712251 24.39964108 -117.48907876 10.10284071 -62.75 3.3125 C-61.56809082 3.16151855 -60.38618164 3.01053711 -59.16845703 2.85498047 C-39.46412521 0.44172699 -19.84032146 0.02413764 0 0 Z " fill="#000000" transform="translate(1049.75,465.6875)"/>
</svg>
