<?xml version="1.0" encoding="UTF-8"?>
<svg version="1.1" xmlns="http://www.w3.org/2000/svg" width="3500" height="3500">
<path d="M0 0 C0.60682617 0.50772949 1.21365234 1.01545898 1.83886719 1.53857422 C3.6269399 3.040536 5.40884456 4.5494016 7.1875 6.0625 C7.68483643 6.48418457 8.18217285 6.90586914 8.69458008 7.34033203 C19.42745803 16.56333922 29.57474827 26.40926861 39.55908203 36.42871094 C41.39110995 38.2661576 43.22850605 40.0981165 45.06640625 41.9296875 C50.9242393 47.78391649 56.66156104 53.66140222 62 60 C62.94860738 61.08370915 63.89908494 62.16578454 64.8515625 63.24609375 C72.65365899 72.19080907 79.89047435 81.49949751 87 91 C87.58072266 91.77037598 88.16144531 92.54075195 88.75976562 93.33447266 C141.83147451 163.79224136 175.25531863 246.29788172 195 380 C195.11021484 381.35472412 195.11021484 381.35472412 195.22265625 382.73681641 C200.60440247 453.31498298 190.0272882 525.29711175 71 765 C70.49227051 765.60682617 69.98454102 766.21365234 69.46142578 766.83886719 C67.959464 768.6269399 66.4505984 770.40884456 64.9375 772.1875 C64.51581543 772.68483643 64.09413086 773.18217285 63.65966797 773.69458008 C54.43666078 784.42745803 44.59073139 794.57474827 34.57128906 804.55908203 C32.7338424 806.39110995 30.9018835 808.22850605 29.0703125 810.06640625 C23.21608351 815.9242393 17.33859778 821.66156104 11 827 C9.91629085 827.94860738 8.83421546 828.89908494 7.75390625 829.8515625 C-1.19080907 837.65365899 -10.49949751 844.89047435 -20 852 C-20.77037598 852.58072266 -21.54075195 853.16144531 -22.33447266 853.75976562 C-92.79224136 906.83147451 -175.29788172 940.25531863 -309 960 C-310.35472412 960.11021484 -310.35472412 960.11021484 -311.73681641 960.22265625 C-382.31498298 965.60440247 -454.29711175 955.0272882 -694 836 C-694.60682617 835.49227051 -695.21365234 834.98454102 -695.83886719 834.46142578 C-697.6269399 832.959464 -699.40884456 831.4505984 -701.1875 829.9375 C-701.68483643 829.51581543 -702.18217285 829.09413086 -702.69458008 828.65966797 C-713.42745803 819.43666078 -723.57474827 809.59073139 -733.55908203 799.57128906 C-735.39110995 797.7338424 -737.22850605 795.9018835 -739.06640625 794.0703125 C-744.9242393 788.21608351 -750.66156104 782.33859778 -756 776 C-756.94860738 774.91629085 -757.89908494 773.83421546 -758.8515625 772.75390625 C-766.65365899 763.80919093 -773.89047435 754.50050249 -781 745 C-781.58072266 744.22962402 -782.16144531 743.45924805 -782.75976562 742.66552734 C-833.98201974 674.66308671 -868.92295573 593.58589915 -888.83691406 458.42626953 C-888.98739183 456.18757482 -889.1599101 453.95164164 -889.3359375 451.71484375 C-895.82444769 361.36520342 -877.37513994 268.81594414 -765 71 C-764.49227051 70.39317383 -763.98454102 69.78634766 -763.46142578 69.16113281 C-761.959464 67.3730601 -760.4505984 65.59115544 -758.9375 63.8125 C-758.30497314 63.06649536 -758.30497314 63.06649536 -757.65966797 62.30541992 C-748.43666078 51.57254197 -738.59073139 41.42525173 -728.57128906 31.44091797 C-726.7338424 29.60889005 -724.9018835 27.77149395 -723.0703125 25.93359375 C-717.21608351 20.0757607 -711.33859778 14.33843896 -705 9 C-703.91629085 8.05139262 -702.83421546 7.10091506 -701.75390625 6.1484375 C-692.80919093 -1.65365899 -683.50050249 -8.89047435 -674 -16 C-673.22962402 -16.58072266 -672.45924805 -17.16144531 -671.66552734 -17.75976562 C-601.20775864 -70.83147451 -518.70211828 -104.25531863 -385 -124 C-384.09685059 -124.07347656 -383.19370117 -124.14695312 -382.26318359 -124.22265625 C-311.68501702 -129.60440247 -239.70288825 -119.0272882 0 0 Z " fill="#000000" transform="translate(2097,1332)"/>
<path d="M0 0 C12.8136651 11.42205408 19.96272375 27.33482383 21.8125 44.25 C22.85037197 62.88753062 16.90021589 79.84720689 4.9375 94.0625 C-3.62933954 103.10610768 -14.52227444 109.10639155 -25.48413086 114.7722168 C-28.78815556 116.48075378 -32.07692465 118.21827553 -35.3671875 119.953125 C-36.02398499 120.29867432 -36.68078247 120.64422363 -37.35748291 121.00024414 C-43.13868444 124.05088599 -48.82951036 127.24836205 -54.5 130.5 C-63.88040663 135.8674074 -73.38541226 140.96899483 -82.93569946 146.02471924 C-92.38333017 151.02931951 -101.72750338 156.18484978 -111.01171875 161.48828125 C-117.54502857 165.20966937 -124.155151 168.7451072 -130.828125 172.20825195 C-136.86158794 175.35737326 -142.77976964 178.68429993 -148.6875 182.0625 C-158.02856535 187.39842363 -167.48580489 192.48260408 -177 197.5 C-187.20754723 202.88375453 -197.32417148 208.38159388 -207.33984375 214.1171875 C-215.14623638 218.56694171 -223.05968981 222.79607962 -231 227 C-239.90461242 231.71465806 -248.75299396 236.49636316 -257.5 241.5 C-266.88537028 246.86880668 -276.39431561 251.97324402 -285.9487915 257.0317688 C-294.16144325 261.38274772 -302.3088644 265.8183317 -310.375 270.4375 C-320.16834397 276.04373277 -330.11008518 281.33842597 -340.08972168 286.60223389 C-349.59851329 291.62099518 -359.00855068 296.77351176 -368.33984375 302.1171875 C-376.78060265 306.92853946 -385.35046833 311.47993096 -393.93624878 316.0249939 C-403.38369388 321.02950475 -412.72768241 326.18495206 -422.01171875 331.48828125 C-428.54502857 335.20966937 -435.155151 338.7451072 -441.828125 342.20825195 C-447.86158794 345.35737326 -453.77976964 348.68429993 -459.6875 352.0625 C-469.70314508 357.78376575 -479.85903411 363.20736137 -490.06051636 368.58648682 C-501.81617192 374.78929086 -513.42564712 381.21079332 -524.94238281 387.84936523 C-525.62139648 388.22907471 -526.30041016 388.60878418 -527 389 C-527.66612305 389.400979 -528.33224609 389.80195801 -529.01855469 390.21508789 C-531 391 -531 391 -533.06494141 390.96118164 C-535.97892191 389.51375025 -536.5922447 387.53691394 -537.9609375 384.62109375 C-538.50758057 383.48422119 -539.05422363 382.34734863 -539.61743164 381.17602539 C-539.90329132 380.56711456 -540.189151 379.95820374 -540.4836731 379.33084106 C-542.00149092 376.10671891 -543.57183775 372.90857039 -545.14453125 369.7109375 C-545.46455612 369.05926102 -545.78458099 368.40758453 -546.11430359 367.73616028 C-551.17829983 357.50661867 -557.08170806 347.75211186 -563 338 C-563.57169922 337.05447266 -564.14339844 336.10894531 -564.73242188 335.13476562 C-570.69148919 325.30670114 -576.72939544 315.62932981 -583.5859375 306.3984375 C-584.05257812 305.60695313 -584.51921875 304.81546875 -585 304 C-583.80455824 300.41367472 -583.08283653 300.17422103 -579.8984375 298.35546875 C-579.02775635 297.85088135 -578.1570752 297.34629395 -577.26000977 296.82641602 C-576.30795654 296.28557373 -575.35590332 295.74473145 -574.375 295.1875 C-572.34943017 294.01445331 -570.32471641 292.83992735 -568.30078125 291.6640625 C-567.25486816 291.05852539 -566.20895508 290.45298828 -565.13134766 289.82910156 C-560.23648632 286.96988582 -555.39825616 284.02025218 -550.5625 281.0625 C-549.60947998 280.48056885 -548.65645996 279.8986377 -547.67456055 279.29907227 C-545.74209515 278.11890721 -543.80988435 276.93832517 -541.87792969 275.75732422 C-539.03807973 274.02325228 -536.19541232 272.29390948 -533.3515625 270.56640625 C-523.31895212 264.47158678 -513.30514746 258.34763963 -503.3125 252.1875 C-490.75395936 244.44742233 -478.14855152 236.786431 -465.53222656 229.14111328 C-460.26836014 225.95091874 -455.00760167 222.75560533 -449.74661255 219.56066895 C-446.83769815 217.7941666 -443.92861436 216.02794324 -441.01953125 214.26171875 C-440.44305344 213.91170807 -439.86657562 213.56169739 -439.27262878 213.20108032 C-435.7224932 211.04564418 -432.17218237 208.89049697 -428.62174988 206.73554993 C-414.34009308 198.06724146 -400.06316935 189.3912275 -385.79443359 180.70166016 C-381.03004919 177.80040563 -376.26498502 174.90026793 -371.5 172 C-369.58333019 170.83333849 -367.66666352 169.66667183 -365.75 168.5 C-285.25 119.5 -285.25 119.5 -282.37573242 117.75048828 C-280.45657407 116.5822766 -278.5374661 115.41398216 -276.6184082 114.24560547 C-271.86527121 111.35190114 -267.1113045 108.45957955 -262.35546875 105.5703125 C-252.32239318 99.47282975 -242.30666545 93.34857542 -232.3125 87.1875 C-219.75395936 79.44742233 -207.14855152 71.786431 -194.53222656 64.14111328 C-189.26836014 60.95091874 -184.00760167 57.75560533 -178.74661255 54.56066895 C-175.83769815 52.7941666 -172.92861436 51.02794324 -170.01953125 49.26171875 C-169.15481453 48.73670273 -169.15481453 48.73670273 -168.27262878 48.20108032 C-164.7224932 46.04564418 -161.17218237 43.89049697 -157.62174988 41.73554993 C-139.39678846 30.67383701 -121.18099049 19.59717062 -102.97729492 8.50048828 C-100.07260539 6.73171219 -97.16531467 4.96727261 -94.2578125 3.203125 C-91.0511173 1.25583255 -87.85726258 -0.70870553 -84.6796875 -2.703125 C-57.19794929 -19.83968662 -25.8408466 -21.12109436 0 0 Z " fill="#000000" transform="translate(2865,1082)"/>
<path d="M0 0 C6.02633621 3.71143861 12.07633987 7.38324956 18.12954712 11.05064392 C21.05180043 12.82170653 23.97238682 14.59551231 26.89294434 16.36936951 C28.01571777 17.05128357 29.13849121 17.73319763 30.29528809 18.43577576 C38.12867398 23.19541927 45.95743602 27.96265822 53.78601074 32.73020935 C57.5882706 35.04558164 61.3909739 37.36022503 65.19372559 39.67478943 C67.11696552 40.84542185 69.04014269 42.0161574 70.96325684 43.18699646 C75.71598065 46.08046697 80.46954537 48.97253633 85.22497559 51.86155701 C95.25805115 57.95903976 105.27377889 64.08329408 115.26794434 70.24436951 C127.82648498 77.98444718 140.43189282 85.6454385 153.04821777 93.29075623 C158.3120842 96.48095077 163.57284267 99.67626418 168.83383179 102.87120056 C171.74274619 104.63770291 174.65182997 106.40392626 177.56091309 108.17015076 C178.1373909 108.52016144 178.71386871 108.87017212 179.30781555 109.23078918 C182.85795114 111.38622533 186.40826197 113.54137254 189.95869446 115.69631958 C204.24035126 124.36462805 218.51727498 133.04064201 232.78601074 141.73020935 C237.55039515 144.63146388 242.31545931 147.53160157 247.08044434 150.43186951 C248.99711414 151.59853101 250.91378081 152.76519767 252.83044434 153.93186951 C253.77919434 154.50936951 254.72794434 155.08686951 255.70544434 155.68186951 C340.51794434 207.30686951 340.51794434 207.30686951 425.33044434 258.93186951 C426.2797583 259.50969177 427.22907227 260.08751404 428.20715332 260.68284607 C430.11819885 261.84613354 432.02916927 263.00954442 433.94006348 264.17308044 C438.81711573 267.14248038 443.69557195 270.10953178 448.57653809 273.07249451 C459.62620265 279.78331389 470.64169045 286.5415659 481.58044434 293.43186951 C479.96506226 298.25000332 477.25316208 302.04159318 474.39294434 306.18186951 C457.91674085 330.50147452 444.1554707 356.42308005 430.58044434 382.43186951 C426.82408341 381.8410941 423.97873074 380.77211785 420.65075684 378.94749451 C419.7032959 378.43154724 418.75583496 377.91559998 417.77966309 377.38401794 C416.7651709 376.82230896 415.75067871 376.26059998 414.70544434 375.68186951 C413.63681152 375.0969574 412.56817871 374.51204529 411.46716309 373.90940857 C403.5331463 369.55224093 395.66533103 365.08209186 387.80285645 360.59764099 C378.683906 355.42851552 369.42842311 350.52793728 360.16149902 345.6313324 C351.7368898 341.17975943 343.33782636 336.69559581 335.0291748 332.03001404 C329.01978792 328.65889457 322.95901546 325.38719742 316.89294434 322.11936951 C308.79628298 317.75447618 300.76054856 313.29688051 292.76794434 308.74436951 C285.17022868 304.41756308 277.51376595 300.25172352 269.75378418 296.22434998 C263.71980122 293.07503981 257.80115008 289.74784141 251.89294434 286.36936951 C242.55187899 281.03344588 233.09463945 275.94926543 223.58044434 270.93186951 C213.37289711 265.54811498 203.25627285 260.05027562 193.24060059 254.31468201 C184.79984168 249.50333004 176.22997601 244.95193855 167.64419556 240.40687561 C158.19675045 235.40236476 148.85276192 230.24691745 139.56872559 224.94358826 C133.03541576 221.22220013 126.42529334 217.6867623 119.75231934 214.22361755 C113.71885639 211.07449624 107.80067469 207.74756957 101.89294434 204.36936951 C92.55187899 199.03344588 83.09463945 193.94926543 73.58044434 188.93186951 C63.37289711 183.54811498 53.25627285 178.05027562 43.24060059 172.31468201 C34.79984168 167.50333004 26.22997601 162.95193855 17.64419556 158.40687561 C8.19675045 153.40236476 -1.14723808 148.24691745 -10.43127441 142.94358826 C-16.96458424 139.22220013 -23.57470666 135.6867623 -30.24768066 132.22361755 C-37.24403516 128.57192213 -44.08762256 124.67253487 -50.93444824 120.74925232 C-56.75993659 117.43470882 -62.6352466 114.240691 -68.57580566 111.13890076 C-69.63321709 110.58509987 -69.63321709 110.58509987 -70.71199036 110.02011108 C-74.18596721 108.20202782 -77.66519585 106.39557439 -81.15466309 104.60740662 C-96.47411324 96.66893991 -109.79047832 87.20765665 -117.79455566 71.49436951 C-118.11649902 70.86264832 -118.43844238 70.23092712 -118.7701416 69.58006287 C-123.17994337 60.37897648 -124.96657231 51.28630891 -124.85705566 41.11936951 C-124.84875732 40.11535095 -124.84045898 39.1113324 -124.83190918 38.07688904 C-124.44396253 20.93268423 -117.94151844 6.27261896 -106.02502441 -6.13063049 C-71.64136595 -38.29765131 -34.19958193 -21.06515902 0 0 Z " fill="#000000" transform="translate(738.4195556640625,1090.568130493164)"/>
<path d="M0 0 C4.81818725 1.61539999 8.60961477 4.32738374 12.75 7.1875 C31.75803651 20.05888173 51.72762536 31.26439934 72 42 C73.76049098 42.93605816 75.5209108 43.87225018 77.28125 44.80859375 C81.18304187 46.880931 85.08964259 48.94387457 89 51 C88.40922459 54.75636093 87.34024834 57.6017136 85.515625 60.9296875 C84.99967773 61.87714844 84.48373047 62.82460937 83.95214844 63.80078125 C83.10958496 65.32251953 83.10958496 65.32251953 82.25 66.875 C81.37263184 68.47794922 81.37263184 68.47794922 80.47753906 70.11328125 C76.12037142 78.04729804 71.65022236 85.91511331 67.16577148 93.77758789 C61.99664602 102.89653833 57.09606777 112.15202122 52.19946289 121.41894531 C47.74788992 129.84355454 43.2637263 138.24261797 38.59814453 146.55126953 C35.22702506 152.56065641 31.95532791 158.62142888 28.6875 164.6875 C24.32260668 172.78416135 19.86501101 180.81989578 15.3125 188.8125 C10.98569357 196.41021566 6.81985401 204.06667838 2.79248047 211.82666016 C-0.3568297 217.86064312 -3.6840281 223.77929425 -7.0625 229.6875 C-12.39842363 239.02856535 -17.48260408 248.48580489 -22.5 258 C-27.88375453 268.20754723 -33.38159388 278.32417148 -39.1171875 288.33984375 C-43.92853946 296.78060265 -48.47993096 305.35046833 -53.0249939 313.93624878 C-58.02950475 323.38369388 -63.18495206 332.72768241 -68.48828125 342.01171875 C-72.20966937 348.54502857 -75.7451072 355.155151 -79.20825195 361.828125 C-82.35737326 367.86158794 -85.68429993 373.77976964 -89.0625 379.6875 C-94.39842363 389.02856535 -99.48260408 398.48580489 -104.5 408 C-109.88375453 418.20754723 -115.38159388 428.32417148 -121.1171875 438.33984375 C-125.56694171 446.14623638 -129.79607962 454.05968981 -134 462 C-139.20754705 471.8355358 -144.53979994 481.57705675 -150.06640625 491.23828125 C-154.53016828 499.08002535 -158.77810762 507.02657927 -163 515 C-168.27652533 524.96393242 -173.66197722 534.84667501 -179.26635742 544.6315918 C-182.05786251 549.51770266 -184.77999525 554.42929051 -187.4140625 559.40234375 C-187.98294189 560.47307129 -188.55182129 561.54379883 -189.13793945 562.64697266 C-190.21322388 564.67965058 -191.28020918 566.71675272 -192.33666992 568.75927734 C-201.66312083 586.36457129 -214.55670636 597.20626759 -233.01953125 604.1328125 C-250.67149111 609.45682968 -268.39828644 606.82068435 -284.6796875 598.65625 C-299.97352341 590.08026725 -311.00104675 576.12248295 -315.75 559.25 C-321.25889716 537.85498081 -316.14220335 519.52272586 -305.23974609 501.01123047 C-301.35804239 494.5008335 -297.4069998 488.03412427 -293.43186951 481.58044434 C-289.72060355 475.55438845 -286.04898466 469.50465522 -282.3817749 463.45172119 C-280.60804964 460.5252112 -278.83131492 457.60052998 -277.0546875 454.67578125 C-274.10375147 449.81729197 -274.10375147 449.81729197 -271.15332031 444.95849609 C-264.53215182 434.05529778 -257.88106415 423.17141911 -251.1875 412.3125 C-243.44747749 399.75392489 -235.78643132 387.14855205 -228.14111328 374.53222656 C-224.95091874 369.26836014 -221.75560533 364.00760167 -218.56066895 358.74661255 C-216.7941666 355.83769815 -215.02794324 352.92861436 -213.26171875 350.01953125 C-212.91170807 349.44305344 -212.56169739 348.86657562 -212.20108032 348.27262878 C-210.04564418 344.7224932 -207.89049697 341.17218237 -205.73554993 337.62174988 C-197.06724146 323.34009308 -188.3912275 309.06316935 -179.70166016 294.79443359 C-176.80040563 290.03004919 -173.90026793 285.26498502 -171 280.5 C-169.83333849 278.58333019 -168.66667183 276.66666352 -167.5 274.75 C-166.9225 273.80125 -166.345 272.8525 -165.75 271.875 C-159.33333333 261.33333333 -152.91666667 250.79166667 -146.5 240.25 C-145.92266113 239.3014917 -145.34532227 238.3529834 -144.75048828 237.37573242 C-143.5822766 235.45657407 -142.41398216 233.5374661 -141.24560547 231.6184082 C-138.35190114 226.86527121 -135.45957955 222.1113045 -132.5703125 217.35546875 C-126.47282975 207.32239318 -120.34857542 197.30666545 -114.1875 187.3125 C-106.44742233 174.75395936 -98.786431 162.14855152 -91.14111328 149.53222656 C-87.95091874 144.26836014 -84.75560533 139.00760167 -81.56066895 133.74661255 C-79.7941666 130.83769815 -78.02794324 127.92861436 -76.26171875 125.01953125 C-75.91170807 124.44305344 -75.56169739 123.86657562 -75.20108032 123.27262878 C-73.04564418 119.7224932 -70.89049697 116.17218237 -68.73554993 112.62174988 C-60.06724146 98.34009308 -51.3912275 84.06316935 -42.70166016 69.79443359 C-40.38604107 65.99176845 -38.0711486 62.18866126 -35.75634766 58.38549805 C-34.58817726 56.46631457 -33.41988356 54.54720614 -32.25146484 52.62817383 C-29.32014783 47.81349178 -26.39069578 42.99769281 -23.46484375 38.1796875 C-15.70834197 25.41239566 -7.88526439 12.68817933 0 0 Z " fill="#000000" transform="translate(1384,2280)"/>
<path d="M0 0 C3.58632528 1.19544176 3.82577897 1.91716347 5.64453125 5.1015625 C6.14911865 5.97224365 6.65370605 6.8429248 7.17358398 7.73999023 C7.71442627 8.69204346 8.25526855 9.64409668 8.8125 10.625 C9.98554669 12.65056983 11.16007265 14.67528359 12.3359375 16.69921875 C12.94147461 17.74513184 13.54701172 18.79104492 14.17089844 19.86865234 C17.03011418 24.76351368 19.97974782 29.60174384 22.9375 34.4375 C23.51943115 35.39052002 24.1013623 36.34354004 24.70092773 37.32543945 C25.88109279 39.25790485 27.06167483 41.19011565 28.24267578 43.12207031 C29.97674772 45.96192027 31.70609052 48.80458768 33.43359375 51.6484375 C39.52841322 61.68104788 45.65236037 71.69485254 51.8125 81.6875 C59.55257767 94.24604064 67.213569 106.85144848 74.85888672 119.46777344 C78.04908126 124.73163986 81.24439467 129.99239833 84.43933105 135.25338745 C86.2058334 138.16230185 87.97205676 141.07138564 89.73828125 143.98046875 C90.08829193 144.55694656 90.43830261 145.13342438 90.79891968 145.72737122 C92.95435582 149.2775068 95.10950303 152.82781763 97.26445007 156.37825012 C105.93275854 170.65990692 114.6087725 184.93683065 123.29833984 199.20556641 C126.19959437 203.96995081 129.09973207 208.73501498 132 213.5 C133.16666151 215.41666981 134.33332817 217.33333648 135.5 219.25 C156.5 253.75 156.5 253.75 158.24951172 256.62426758 C159.4177234 258.54342593 160.58601784 260.4625339 161.75439453 262.3815918 C164.64809886 267.13472879 167.54042045 271.8886955 170.4296875 276.64453125 C176.52717025 286.67760682 182.65142458 296.69333455 188.8125 306.6875 C196.55257767 319.24604064 204.213569 331.85144848 211.85888672 344.46777344 C215.04908126 349.73163986 218.24439467 354.99239833 221.43933105 360.25338745 C223.2058334 363.16230185 224.97205676 366.07138564 226.73828125 368.98046875 C227.08829193 369.55694656 227.43830261 370.13342438 227.79891968 370.72737122 C229.95435582 374.2775068 232.10950303 377.82781763 234.26445007 381.37825012 C242.93275854 395.65990692 251.6087725 409.93683065 260.29833984 424.20556641 C263.19959437 428.96995081 266.09973207 433.73501498 269 438.5 C270.16666151 440.41666981 271.33332817 442.33333648 272.5 444.25 C274.83333333 448.08333333 277.16666667 451.91666667 279.5 455.75 C280.07790283 456.69939453 280.65580566 457.64878906 281.2512207 458.62695312 C282.41388036 460.53707164 283.57647836 462.44722768 284.73901367 464.35742188 C288.32585652 470.25084655 291.91499066 476.14286762 295.50610352 482.03369141 C297.27272865 484.93469092 299.03494879 487.83833246 300.796875 490.7421875 C302.74416745 493.9488827 304.70870553 497.14273742 306.703125 500.3203125 C317.35997353 517.41059746 322.55169936 534.6480133 319 554.8125 C314.89876796 572.08388564 304.65422301 587.00064783 290 597 C273.56377434 606.16905159 256.45089999 608.92737808 238 605 C217.13634767 598.78529505 203.30801784 585.53790351 193.02485657 566.7482605 C191.74089895 564.34548318 190.47703969 561.93298905 189.22613525 559.5128479 C187.52573552 556.22427078 185.79682705 552.95070174 184.0703125 549.67578125 C183.55384659 548.69399147 183.55384659 548.69399147 183.02694702 547.69236755 C179.84576103 541.66393196 176.5100504 535.72872335 173.125 529.8125 C168.85586704 522.34087087 164.75545741 514.80936389 160.79174805 507.171875 C157.64262674 501.13841206 154.31570007 495.22023036 150.9375 489.3125 C145.60157637 479.97143465 140.51739592 470.51419511 135.5 461 C130.11624547 450.79245277 124.61840612 440.67582852 118.8828125 430.66015625 C114.07146054 422.21939735 109.52006904 413.64953167 104.9750061 405.06375122 C99.97049525 395.61630612 94.81504794 386.27231759 89.51171875 376.98828125 C85.79033063 370.45497143 82.2548928 363.844849 78.79174805 357.171875 C75.64262674 351.13841206 72.31570007 345.22023036 68.9375 339.3125 C63.60157637 329.97143465 58.51739592 320.51419511 53.5 311 C48.11624547 300.79245277 42.61840612 290.67582852 36.8828125 280.66015625 C32.43305829 272.85376362 28.20392038 264.94031019 24 257 C19.28534194 248.09538758 14.50363684 239.24700604 9.5 230.5 C4.13119332 221.11462972 -0.97324402 211.60568439 -6.0317688 202.0512085 C-10.38274772 193.83855675 -14.8183317 185.6911356 -19.4375 177.625 C-25.04373277 167.83165603 -30.33842597 157.88991482 -35.60223389 147.91027832 C-40.62099518 138.40148671 -45.77351176 128.99144932 -51.1171875 119.66015625 C-55.92570991 111.22436135 -60.47475436 102.65970241 -65.01693726 94.07885742 C-71.08221646 82.6281785 -77.37275695 71.32280612 -83.83349609 60.08935547 C-84.21844238 59.39986816 -84.60338867 58.71038086 -85 58 C-85.4017041 57.33242676 -85.8034082 56.66485352 -86.21728516 55.97705078 C-87 54 -87 54 -86.93603516 51.92358398 C-85.56850798 49.11326927 -83.82834728 48.54172063 -81.0234375 47.22265625 C-79.9720459 46.71621582 -78.9206543 46.20977539 -77.83740234 45.68798828 C-76.69480957 45.15157715 -75.5522168 44.61516602 -74.375 44.0625 C-71.97678445 42.89908094 -69.5806596 41.73228623 -67.1875 40.55859375 C-66.58005951 40.26170654 -65.97261902 39.96481934 -65.34677124 39.65893555 C-43.42349427 28.88824469 -21.88513526 15.93872424 -2.29296875 1.34375 C-1.53628906 0.9003125 -0.77960937 0.456875 0 0 Z " fill="#000000" transform="translate(2114,2280)"/>
<path d="M0 0 C12.72737361 13.26303748 18.77123548 30.58762983 18.5234375 48.80078125 C17.29497425 70.67687685 4.88564015 87.76219853 -6.24781799 105.83752441 C-9.9592566 111.86386063 -13.63106755 117.91386428 -17.29846191 123.96707153 C-19.06952452 126.88932484 -20.8433303 129.80991124 -22.6171875 132.73046875 C-23.29910156 133.85324219 -23.98101563 134.97601562 -24.68359375 136.1328125 C-29.44323726 143.9661984 -34.21047621 151.79496043 -38.97802734 159.62353516 C-41.87928187 164.38791956 -44.77941957 169.15298373 -47.6796875 173.91796875 C-48.84634901 175.83463856 -50.01301567 177.75130523 -51.1796875 179.66796875 C-52.0459375 181.09109375 -52.0459375 181.09109375 -52.9296875 182.54296875 C-68.6796875 208.41796875 -84.4296875 234.29296875 -100.1796875 260.16796875 C-100.75702637 261.11647705 -101.33436523 262.06498535 -101.92919922 263.04223633 C-103.0974109 264.96139468 -104.26570534 266.88050265 -105.43408203 268.79956055 C-108.32778636 273.55269754 -111.22010795 278.30666425 -114.109375 283.0625 C-120.20685775 293.09557557 -126.33111208 303.1113033 -132.4921875 313.10546875 C-140.23226517 325.66400939 -147.8932565 338.26941723 -155.53857422 350.88574219 C-158.72876876 356.14960861 -161.92408217 361.41036708 -165.11901855 366.6713562 C-166.8855209 369.5802706 -168.65174426 372.48935439 -170.41796875 375.3984375 C-170.76797943 375.97491531 -171.11799011 376.55139313 -171.47860718 377.14533997 C-173.63404332 380.69547555 -175.78919053 384.24578638 -177.94413757 387.79621887 C-186.61244604 402.07787567 -195.28846 416.3547994 -203.97802734 430.62353516 C-206.87928187 435.38791956 -209.77941957 440.15298373 -212.6796875 444.91796875 C-213.84634901 446.83463856 -215.01301567 448.75130523 -216.1796875 450.66796875 C-216.7571875 451.61671875 -217.3346875 452.56546875 -217.9296875 453.54296875 C-227.5546875 469.35546875 -227.5546875 469.35546875 -237.1796875 485.16796875 C-237.75702637 486.11647705 -238.33436523 487.06498535 -238.92919922 488.04223633 C-240.0974109 489.96139468 -241.26570534 491.88050265 -242.43408203 493.79956055 C-245.32778636 498.55269754 -248.22010795 503.30666425 -251.109375 508.0625 C-257.86364123 519.17627698 -264.65785432 530.26442339 -271.4831543 541.3347168 C-277.36852283 550.8905149 -283.19729983 560.4800936 -289.0090332 570.08081055 C-292.52547603 575.88618267 -296.06347684 581.6741623 -299.6796875 587.41796875 C-304.49787475 585.80256876 -308.28930227 583.09058501 -312.4296875 580.23046875 C-331.43772401 567.35908702 -351.40731286 556.15356941 -371.6796875 545.41796875 C-373.44017848 544.48191059 -375.2005983 543.54571857 -376.9609375 542.609375 C-380.86272937 540.53703775 -384.76933009 538.47409418 -388.6796875 536.41796875 C-388.08891209 532.66160782 -387.01993584 529.81625515 -385.1953125 526.48828125 C-384.67880127 525.53977295 -384.16229004 524.59126465 -383.63012695 523.61401367 C-383.06898193 522.60056885 -382.50783691 521.58712402 -381.9296875 520.54296875 C-381.34985107 519.48376221 -380.77001465 518.42455566 -380.17260742 517.33325195 C-375.6413774 509.08336845 -371.00362714 500.89470056 -366.34667969 492.71533203 C-362.57961668 486.07687931 -358.98787722 479.36541073 -355.47216797 472.59130859 C-352.3228578 466.55732563 -348.9956594 460.6386745 -345.6171875 454.73046875 C-340.28126387 445.3894034 -335.19708342 435.93216386 -330.1796875 426.41796875 C-324.79593297 416.21042152 -319.29809362 406.09379727 -313.5625 396.078125 C-308.75114804 387.6373661 -304.19975654 379.06750042 -299.6546936 370.48171997 C-294.65018275 361.03427487 -289.49473544 351.69028634 -284.19140625 342.40625 C-280.47001813 335.87294018 -276.9345803 329.26281775 -273.47143555 322.58984375 C-270.32231424 316.55638081 -266.99538757 310.63819911 -263.6171875 304.73046875 C-258.28126387 295.3894034 -253.19708342 285.93216386 -248.1796875 276.41796875 C-242.79593297 266.21042152 -237.29809362 256.09379727 -231.5625 246.078125 C-226.75114804 237.6373661 -222.19975654 229.06750042 -217.6546936 220.48171997 C-212.65018275 211.03427487 -207.49473544 201.69028634 -202.19140625 192.40625 C-198.47001813 185.87294018 -194.9345803 179.26281775 -191.47143555 172.58984375 C-188.32231424 166.55638081 -184.99538757 160.63819911 -181.6171875 154.73046875 C-176.28126387 145.3894034 -171.19708342 135.93216386 -166.1796875 126.41796875 C-160.79593297 116.21042152 -155.29809362 106.09379727 -149.5625 96.078125 C-145.11274132 88.27172454 -140.88376508 80.35820219 -136.6796875 72.41796875 C-131.40322816 62.45400355 -126.01770848 52.5712906 -120.41333008 42.78637695 C-117.62182499 37.90026609 -114.89969225 32.98867824 -112.265625 28.015625 C-111.69674561 26.94489746 -111.12786621 25.87416992 -110.54174805 24.77099609 C-109.46646362 22.73831817 -108.39947832 20.70121603 -107.34301758 18.65869141 C-98.04843894 1.11356191 -85.08542285 -9.99745219 -66.5546875 -16.71484375 C-63.93697005 -17.48082357 -61.36029723 -18.0839022 -58.6796875 -18.58203125 C-57.93332031 -18.73414063 -57.18695312 -18.88625 -56.41796875 -19.04296875 C-35.67437688 -22.21261776 -15.01591741 -14.05094466 0 0 Z " fill="#000000" transform="translate(2415.6796875,632.58203125)"/>
<path d="M0 0 C3.75636093 0.59077541 6.6017136 1.65975166 9.9296875 3.484375 C10.87730957 4.00040283 11.82493164 4.51643066 12.80126953 5.0480957 C13.81560059 5.60972412 14.82993164 6.17135254 15.875 6.75 C17.47577393 7.62628052 17.47577393 7.62628052 19.10888672 8.52026367 C27.0936554 12.90570811 35.01528873 17.39952861 42.92919922 21.91113281 C51.51658999 26.78133349 60.22325403 31.41194859 68.94714355 36.03094482 C77.16035055 40.38219484 85.30832775 44.81802438 93.375 49.4375 C102.48463895 54.65234353 111.71699279 59.60363259 121 64.5 C131.20744069 69.88396435 141.32416275 75.38158889 151.33984375 81.1171875 C159.78060265 85.92853946 168.35046833 90.47993096 176.93624878 95.0249939 C186.38369388 100.02950475 195.72768241 105.18495206 205.01171875 110.48828125 C211.54502857 114.20966937 218.155151 117.7451072 224.828125 121.20825195 C230.86158794 124.35737326 236.77976964 127.68429993 242.6875 131.0625 C252.02856535 136.39842363 261.48580489 141.48260408 271 146.5 C281.20754723 151.88375453 291.32417148 157.38159388 301.33984375 163.1171875 C309.78060265 167.92853946 318.35046833 172.47993096 326.93624878 177.0249939 C336.38369388 182.02950475 345.72768241 187.18495206 355.01171875 192.48828125 C361.54502857 196.20966937 368.155151 199.7451072 374.828125 203.20825195 C380.86158794 206.35737326 386.77976964 209.68429993 392.6875 213.0625 C402.02856535 218.39842363 411.48580489 223.48260408 421 228.5 C431.20754723 233.88375453 441.32417148 239.38159388 451.33984375 245.1171875 C459.14623695 249.56694204 467.0596889 253.7960786 475 258 C485.22350349 263.41296597 495.36205142 268.94433569 505.4050293 274.68823242 C510.3272396 277.50238407 515.27467076 280.21157421 520.3125 282.8125 C536.83232239 291.65929962 546.66237034 304.77245611 553.1328125 322.01953125 C558.45682968 339.67149111 555.82068435 357.39828644 547.65625 373.6796875 C539.08026725 388.97352341 525.12248295 400.00104675 508.25 404.75 C486.85498081 410.25889716 468.52272586 405.14220335 450.01123047 394.23974609 C443.5008335 390.35804239 437.03412427 386.4069998 430.58044434 382.43186951 C424.55410812 378.7204309 418.50410447 375.04861995 412.45089722 371.38122559 C409.52864391 369.61016298 406.60805751 367.8363572 403.6875 366.0625 C402.56472656 365.38058594 401.44195313 364.69867187 400.28515625 363.99609375 C393.37492543 359.79736848 386.46831916 355.59269491 379.5625 351.38671875 C375.83462693 349.11635504 372.10537318 346.84828463 368.375 344.58203125 C358.33533135 338.48077576 348.31312926 332.35256015 338.3125 326.1875 C325.75395936 318.44742233 313.14855152 310.786431 300.53222656 303.14111328 C295.26836014 299.95091874 290.00760167 296.75560533 284.74661255 293.56066895 C281.83769815 291.7941666 278.92861436 290.02794324 276.01953125 288.26171875 C275.15481453 287.73670273 275.15481453 287.73670273 274.27262878 287.20108032 C270.7224932 285.04564418 267.17218237 282.89049697 263.62174988 280.73554993 C249.34009308 272.06724146 235.06316935 263.3912275 220.79443359 254.70166016 C216.03004919 251.80040563 211.26498502 248.90026793 206.5 246 C204.58333019 244.83333849 202.66666352 243.66667183 200.75 242.5 C199.80125 241.9225 198.8525 241.345 197.875 240.75 C195 239 192.125 237.25 189.25 235.5 C188.3014917 234.92266113 187.3529834 234.34532227 186.37573242 233.75048828 C184.45657407 232.5822766 182.5374661 231.41398216 180.6184082 230.24560547 C175.86527121 227.35190114 171.1113045 224.45957955 166.35546875 221.5703125 C156.32239318 215.47282975 146.30666545 209.34857542 136.3125 203.1875 C123.75395936 195.44742233 111.14855152 187.786431 98.53222656 180.14111328 C93.26836014 176.95091874 88.00760167 173.75560533 82.74661255 170.56066895 C79.83769815 168.7941666 76.92861436 167.02794324 74.01953125 165.26171875 C73.44305344 164.91170807 72.86657562 164.56169739 72.27262878 164.20108032 C68.7224932 162.04564418 65.17218237 159.89049697 61.62174988 157.73554993 C47.34009308 149.06724146 33.06316935 140.3912275 18.79443359 131.70166016 C14.99176845 129.38604107 11.18866126 127.0711486 7.38549805 124.75634766 C5.46631457 123.58817726 3.54720614 122.41988356 1.62817383 121.25146484 C-3.18650822 118.32014783 -8.00230719 115.39069578 -12.8203125 112.46484375 C-25.58760434 104.70834197 -38.31182067 96.88526439 -51 89 C-49.38460001 84.18181275 -46.67261626 80.39038523 -43.8125 76.25 C-30.94111827 57.24196349 -19.73560066 37.27237464 -9 17 C-8.06394184 15.23950902 -7.12774982 13.4790892 -6.19140625 11.71875 C-4.119069 7.81695813 -2.05612543 3.91035741 0 0 Z " fill="#000000" transform="translate(2331,2027)"/>
<path d="M0 0 C7.78467098 8.1595785 13.21125273 18.24163976 18.35418701 28.19174194 C20.05458674 31.48031906 21.78349521 34.7538881 23.51000977 38.02880859 C23.85432037 38.68333511 24.19863098 39.33786163 24.55337524 40.01222229 C27.73456124 46.04065789 31.07027187 51.97586649 34.45532227 57.89208984 C38.72445523 65.36371898 42.82486485 72.89522595 46.78857422 80.53271484 C49.93769553 86.56617779 53.2646222 92.48435949 56.64282227 98.39208984 C61.9787459 107.73315519 67.06292634 117.19039473 72.08032227 126.70458984 C77.46407679 136.91213707 82.96191615 147.02876132 88.69750977 157.04443359 C93.50886173 165.4851925 98.06025323 174.05505817 102.60531616 182.64083862 C107.60982701 192.08828373 112.76527432 201.43227226 118.06860352 210.71630859 C121.78999164 217.24961842 125.32542947 223.85974084 128.78857422 230.53271484 C131.93769553 236.56617779 135.2646222 242.48435949 138.64282227 248.39208984 C143.9787459 257.73315519 149.06292634 267.19039473 154.08032227 276.70458984 C159.46407679 286.91213707 164.96191615 297.02876132 170.69750977 307.04443359 C175.50886173 315.4851925 180.06025323 324.05505817 184.60531616 332.64083862 C189.60982701 342.08828373 194.76527432 351.43227226 200.06860352 360.71630859 C203.78999164 367.24961842 207.32542947 373.85974084 210.78857422 380.53271484 C213.93769553 386.56617779 217.2646222 392.48435949 220.64282227 398.39208984 C225.9787459 407.73315519 231.06292634 417.19039473 236.08032227 426.70458984 C241.46407679 436.91213707 246.96191615 447.02876132 252.69750977 457.04443359 C257.14726282 464.85082418 261.37645334 472.76425313 265.58032227 480.70458984 C270.46017396 489.92173164 275.41894288 499.07811134 280.58032227 508.14208984 C281.10770996 509.07061768 281.63509766 509.99914551 282.1784668 510.95581055 C283.1785416 512.71652131 284.17870022 514.47718448 285.17895508 516.23779297 C285.64140625 517.05183594 286.10385742 517.86587891 286.58032227 518.70458984 C287.02472656 519.48511719 287.46913086 520.26564453 287.92700195 521.06982422 C289.11617052 523.1702926 290.28853743 525.27912855 291.45532227 527.39208984 C292.09211914 528.53033203 292.72891602 529.66857422 293.38500977 530.84130859 C294.58032227 533.70458984 294.58032227 533.70458984 294.49121094 535.69848633 C293.12310997 538.71153528 291.16226502 539.27569791 288.20141602 540.66552734 C287.06454346 541.21217041 285.9276709 541.75881348 284.75634766 542.32202148 C284.14743683 542.60788116 283.538526 542.89374084 282.91116333 543.18826294 C279.68704118 544.70608076 276.48889266 546.27642759 273.29125977 547.84912109 C272.31374504 548.3291584 272.31374504 548.3291584 271.31648254 548.81889343 C261.08694093 553.88288967 251.33243413 559.7862979 241.58032227 565.70458984 C240.63479492 566.27628906 239.68926758 566.84798828 238.71508789 567.43701172 C228.88702341 573.39607903 219.20965208 579.43398529 209.97875977 586.29052734 C209.18727539 586.75716797 208.39579102 587.22380859 207.58032227 587.70458984 C203.99399699 586.50914809 203.7545433 585.78742637 201.93579102 582.60302734 C201.43120361 581.73234619 200.92661621 580.86166504 200.40673828 579.96459961 C199.865896 579.01254639 199.32505371 578.06049316 198.76782227 577.07958984 C197.59477557 575.05402001 196.42024962 573.02930626 195.24438477 571.00537109 C194.3360791 569.43650146 194.3360791 569.43650146 193.40942383 567.8359375 C190.55020737 562.94107493 187.60052491 558.10287743 184.64282227 553.26708984 C184.06234131 552.31624512 183.48186035 551.36540039 182.88378906 550.38574219 C181.70513859 548.45544371 180.52602086 546.52543047 179.34643555 544.59570312 C176.41830369 539.80237476 173.49978136 535.00320351 170.58032227 530.20458984 C169.41370207 528.28789489 168.2470354 526.37122823 167.08032227 524.45458984 C146.08032227 489.95458984 146.08032227 489.95458984 144.33081055 487.08032227 C143.16259887 485.16116392 141.99430442 483.24205594 140.82592773 481.32299805 C137.93222341 476.56986105 135.03990182 471.81589435 132.15063477 467.06005859 C126.05315202 457.02698303 119.92889769 447.01125529 113.76782227 437.01708984 C106.0277446 424.4585492 98.36675327 411.85314136 90.72143555 399.23681641 C87.531241 393.97294998 84.33592759 388.71219151 81.14099121 383.45120239 C79.37448886 380.54228799 77.60826551 377.63320421 75.84204102 374.72412109 C75.49203033 374.14764328 75.14201965 373.57116547 74.78140259 372.97721863 C72.62596644 369.42708304 70.47081924 365.87677221 68.31587219 362.32633972 C59.64756372 348.04468292 50.97154976 333.7677592 42.28198242 319.49902344 C39.3807279 314.73463903 36.4805902 309.96957487 33.58032227 305.20458984 C32.41366076 303.28792004 31.2469941 301.37125337 30.08032227 299.45458984 C9.08032226 264.95458984 9.08032226 264.95458984 7.33081055 262.08032227 C6.16259887 260.16116392 4.99430442 258.24205594 3.82592773 256.32299805 C0.93222341 251.56986105 -1.96009818 246.81589435 -4.84936523 242.06005859 C-10.94684798 232.02698303 -17.07110231 222.01125529 -23.23217773 212.01708984 C-30.9722554 199.4585492 -38.63324673 186.85314136 -46.27856445 174.23681641 C-49.468759 168.97294998 -52.66407241 163.71219151 -55.85900879 158.45120239 C-57.62551114 155.54228799 -59.39173449 152.63320421 -61.15795898 149.72412109 C-61.50796967 149.14764328 -61.85798035 148.57116547 -62.21859741 147.97721863 C-64.37400866 144.42712406 -66.52913254 140.8768552 -68.68405151 137.32646179 C-70.49167192 134.34828419 -72.29942048 131.37018438 -74.10717773 128.39208984 C-74.63637817 127.52023544 -74.63637817 127.52023544 -75.17626953 126.63076782 C-79.48831797 119.52701752 -83.80505877 112.42615512 -88.13012695 105.33032227 C-89.86361091 102.48414499 -91.59291966 99.63546192 -93.32202148 96.78662109 C-95.23050073 93.64520459 -97.15710927 90.51710739 -99.11108398 87.40380859 C-109.8238266 70.22105726 -115.12709248 52.8287205 -111.23217773 32.57958984 C-107.27105162 15.90213831 -97.439512 0.77044367 -83.05249023 -8.73291016 C-55.98329123 -24.79771669 -23.0768942 -21.86030806 0 0 Z " fill="#000000" transform="translate(1178.419677734375,632.29541015625)"/>
<path d="M0 0 C2.89864219 1.31285386 3.42957961 3.02667936 4.77124023 5.87963867 C5.53090088 7.45672607 5.53090088 7.45672607 6.3059082 9.06567383 C6.84231934 10.2082666 7.37873047 11.35085938 7.93139648 12.52807617 C9.09481555 14.92629172 10.26161026 17.32241657 11.43530273 19.71557617 C11.73218994 20.32301666 12.02907715 20.93045715 12.33496094 21.55630493 C23.1056518 43.4795819 36.05517224 65.01794091 50.65014648 84.61010742 C51.09358398 85.36678711 51.53702148 86.1234668 51.99389648 86.90307617 C50.79845473 90.48940145 50.07673302 90.72885514 46.89233398 92.54760742 C46.02165283 93.05219482 45.15097168 93.55678223 44.25390625 94.07666016 C43.30185303 94.61750244 42.3497998 95.15834473 41.36889648 95.71557617 C39.34332665 96.88862286 37.3186129 98.06314882 35.29467773 99.23901367 C33.72580811 100.14731934 33.72580811 100.14731934 32.12524414 101.07397461 C27.23038157 103.93319107 22.39218407 106.88287353 17.55639648 109.84057617 C16.60555176 110.42105713 15.65470703 111.00153809 14.67504883 111.59960938 C12.74475035 112.77825984 10.81473711 113.95737757 8.88500977 115.13696289 C4.0916814 118.06509474 -0.70748985 120.98361707 -5.50610352 123.90307617 C-7.42279847 125.06969636 -9.33946513 126.23636304 -11.25610352 127.40307617 C-45.75610352 148.40307617 -45.75610352 148.40307617 -48.63037109 150.15258789 C-50.54952944 151.32079957 -52.46863742 152.48909401 -54.38769531 153.6574707 C-59.14083231 156.55117503 -63.89479901 159.44349662 -68.65063477 162.33276367 C-78.68371033 168.43024642 -88.69943807 174.55450075 -98.69360352 180.71557617 C-111.25214416 188.45565384 -123.85755199 196.11664517 -136.47387695 203.76196289 C-141.73774338 206.95215743 -146.99850185 210.14747084 -152.25949097 213.34240723 C-155.16840537 215.10890958 -158.07748915 216.87513293 -160.98657227 218.64135742 C-161.56305008 218.9913681 -162.13952789 219.34137878 -162.73347473 219.70199585 C-166.28361032 221.857432 -169.83392115 224.0125792 -173.38435364 226.16752625 C-187.66601044 234.83583472 -201.94293416 243.51184867 -216.21166992 252.20141602 C-220.97605433 255.10267054 -225.74111849 258.00280824 -230.50610352 260.90307617 C-232.42277332 262.06973768 -234.33943999 263.23640434 -236.25610352 264.40307617 C-293.75610351 299.40307617 -293.75610351 299.40307617 -296.63037109 301.15258789 C-298.54952944 302.32079957 -300.46863742 303.48909401 -302.38769531 304.6574707 C-307.14083231 307.55117503 -311.89479901 310.44349662 -316.65063477 313.33276367 C-326.68371033 319.43024642 -336.69943807 325.55450075 -346.69360352 331.71557617 C-359.25214416 339.45565384 -371.85755199 347.11664517 -384.47387695 354.76196289 C-389.738482 357.95260508 -394.99996668 361.14838632 -400.26168823 364.34378052 C-402.00006054 365.39940657 -403.73853648 366.45486173 -405.47705078 367.51025391 C-412.09325741 371.52675721 -418.70873975 375.54444798 -425.32270813 379.56463623 C-428.34284555 381.40008465 -431.36390513 383.23397695 -434.38720703 385.06420898 C-439.15301962 387.9500051 -443.91724099 390.83600478 -448.63891602 393.79370117 C-465.74172435 404.45264534 -483.09573181 409.64213314 -503.19360352 405.65307617 C-520.10880515 401.60691498 -534.74704706 392.21539775 -544.44360352 377.53588867 C-551.13830088 366.25532362 -554.58492452 354.71006182 -554.44360352 341.59057617 C-554.43530518 340.58655762 -554.42700684 339.58253906 -554.41845703 338.5480957 C-554.02707576 321.25210772 -547.33048028 305.93560062 -535.02954102 293.65698242 C-525.29068616 284.50446558 -512.56943854 278.8865079 -500.86523438 272.69067383 C-493.38595417 268.73054471 -485.97603275 264.67092364 -478.63110352 260.46557617 C-469.20369886 255.07753459 -459.65299654 249.95171314 -450.05786133 244.87158203 C-441.8450245 240.52051275 -433.697418 236.08484691 -425.63110352 231.46557617 C-415.83775955 225.8593434 -405.89601833 220.5646502 -395.91638184 215.30084229 C-386.40759023 210.28208099 -376.99755284 205.12956442 -367.66625977 199.78588867 C-359.85986714 195.33613446 -351.94641371 191.10699655 -344.00610352 186.90307617 C-335.10149109 182.18841811 -326.25310956 177.40671301 -317.50610352 172.40307617 C-308.12137803 167.03463834 -298.61302159 161.93071702 -289.05932617 156.87231445 C-280.80524991 152.49908754 -272.61520672 148.04180711 -264.50610352 143.40307617 C-255.12073323 138.03426949 -245.61178791 132.92983216 -236.05731201 127.87130737 C-227.84466027 123.52032846 -219.69723912 119.08474447 -211.63110352 114.46557617 C-201.83775955 108.8593434 -191.89601833 103.5646502 -181.91638184 98.30084229 C-172.40759023 93.28208099 -162.99755284 88.12956442 -153.66625977 82.78588867 C-145.85986714 78.33613446 -137.94641371 74.10699655 -130.00610352 69.90307617 C-121.10149109 65.18841811 -112.25310956 60.40671301 -103.50610352 55.40307617 C-94.12137803 50.03463834 -84.61302159 44.93071702 -75.05932617 39.87231445 C-65.886748 35.01244105 -56.81368214 30.01204569 -47.80297852 24.85644531 C-38.34421043 19.47159403 -28.73677905 14.37234783 -19.11743164 9.28198242 C-18.50186401 8.95585968 -17.88629639 8.62973694 -17.2520752 8.29373169 C-15.50582279 7.369597 -13.75794528 6.44853514 -12.01000977 5.52758789 C-9.57708558 4.21186312 -7.22983576 2.83247002 -4.88110352 1.37573242 C-2.00610352 -0.09692383 -2.00610352 -0.09692383 0 0 Z " fill="#000000" transform="translate(1168.006103515625,2027.096923828125)"/>
<path d="M0 0 C11.03560707 8.42270101 19.22259309 18.89485296 24 32 C24.25029183 32.65520435 24.50058367 33.3104087 24.7584601 33.98546773 C27.95349214 43.68804135 27.3725736 53.57461053 27.26109314 63.6603241 C27.24852417 65.74433996 27.23674455 67.82836071 27.22569269 69.91238517 C27.06569461 94.11765545 26.49484941 118.31809371 25.91560018 142.51621139 C25.77083862 148.60989009 25.63134395 154.70368789 25.49159527 160.79748325 C25.18918395 173.97537464 24.8806956 187.15311804 24.56943603 200.33080309 C24.2976987 211.83606365 24.02811403 223.34137229 23.76057243 234.84673119 C23.74269505 235.61540533 23.72481767 236.38407947 23.70639854 237.17604677 C23.6338086 240.2973018 23.56122787 243.41855703 23.48866131 246.5398126 C22.81165556 275.65796182 22.12843371 304.77596215 21.44224092 333.89389616 C20.83301401 359.74742635 20.22909587 385.60107546 19.62963867 411.45483398 C18.95398405 440.59396785 18.27530583 469.73302852 17.59151691 498.87197274 C17.51875453 501.97297447 17.44599816 505.07397635 17.37324333 508.17497826 C17.3553298 508.93837271 17.33741627 509.70176716 17.3189599 510.48829478 C17.0485085 522.01581238 16.78034864 533.54338182 16.51327705 545.07097816 C16.21040698 558.14297308 15.90412562 571.2148831 15.59329409 584.28669123 C15.43478235 590.95641338 15.27791086 597.62616679 15.12508583 604.29602242 C14.98540523 610.39026355 14.84138534 616.48438553 14.6937803 622.57843973 C14.6409524 624.79168695 14.58975891 627.00497386 14.54029591 629.21829883 C14.47325136 632.20776119 14.40044027 635.19702679 14.32607365 638.18631458 C14.30784417 639.06124613 14.28961469 639.93617769 14.27083281 640.83762231 C14.11415171 646.77169659 14.11415171 646.77169659 13 649 C6.49864717 649.12583264 0.04652336 648.9735067 -6.44506836 648.6418457 C-28.36331558 647.53343752 -50.29263355 647.65771835 -72.20703125 648.77734375 C-77.80835073 649.05823588 -83.39195301 649.10854285 -89 649 C-90.67587261 645.64825479 -90.24933528 641.85895162 -90.32607365 638.1679039 C-90.34917635 637.23726513 -90.37227905 636.30662637 -90.39608184 635.34778643 C-90.47319505 632.19368013 -90.54344484 629.03945698 -90.61378479 625.88519287 C-90.66786583 623.61460235 -90.72236237 621.3440217 -90.77724117 619.07345033 C-90.92751782 612.80479525 -91.0717936 606.53601388 -91.21512449 600.26719666 C-91.35458462 594.20774645 -91.49849724 588.1484035 -91.64227676 582.08905454 C-91.95474717 568.91259117 -92.26171438 555.73600383 -92.56635709 542.55935742 C-92.83359724 531.0008169 -93.10255914 519.4423181 -93.37324333 507.88385773 C-93.40017398 506.7337053 -93.40017398 506.7337053 -93.42764869 505.56031747 C-93.50054079 502.4472603 -93.57343833 499.33420326 -93.64634569 496.22114645 C-94.33138128 466.96918855 -95.01074773 437.7171013 -95.68766918 408.46495463 C-96.28706851 382.56440976 -96.89168777 356.6639917 -97.50073242 330.76367188 C-98.18575616 301.63158438 -98.86720888 272.49941669 -99.54324192 243.36711907 C-99.61567742 240.24609118 -99.68812251 237.12506351 -99.76057243 234.00403595 C-99.78732412 232.85143069 -99.78732412 232.85143069 -99.81461624 231.67554047 C-100.0818548 220.16423311 -100.3517514 208.65299011 -100.62301826 197.14177704 C-100.93283081 183.99437917 -101.23870968 170.84689591 -101.53972048 157.69929346 C-101.69296314 151.01013345 -101.84788623 144.32102538 -102.0075779 137.63201523 C-102.39359179 121.42214651 -102.73505751 105.21231761 -103 89 C-103.01880812 87.90316977 -103.03761623 86.80633954 -103.05699429 85.67627203 C-103.16553169 79.23049164 -103.24947934 72.78521811 -103.29742651 66.33869198 C-103.31452037 64.38573626 -103.33824694 62.43282424 -103.36947454 60.48004338 C-103.67813095 40.26862447 -99.51372395 23.2099645 -85.25952148 8.11254883 C-62.67815277 -14.73769143 -26.54721808 -17.85242561 0 0 Z " fill="#000000" transform="translate(1788,459)"/>
<path d="M0 0 C6.44578039 -0.1085374 12.89105392 -0.19248505 19.33758005 -0.24043223 C21.29053578 -0.25752608 23.24344779 -0.28125265 25.19622865 -0.31248025 C45.40764757 -0.62113666 62.46630753 3.54327034 77.56372321 17.7974728 C90.51150159 30.59289878 96.88656514 46.81502439 97.11377203 64.86949429 C96.98626174 83.32747162 90.50382708 99.24088562 77.50049078 112.39683804 C70.50620352 118.98481816 62.70991315 123.76383174 53.67627203 127.05699429 C53.01528266 127.30728612 52.35429328 127.55757796 51.67327392 127.81545439 C42.10912635 130.94724935 32.45280892 130.43066965 22.51458991 130.31808743 C20.47785766 130.30551207 18.44112036 130.29373338 16.40437925 130.28268698 C-7.67039553 130.12011101 -31.74069614 129.54718091 -55.80841672 128.97259447 C-61.91388221 128.82791452 -68.01946377 128.68837514 -74.12504293 128.54858956 C-87.3298998 128.24606861 -100.53461239 127.93760391 -113.7392679 127.62643032 C-125.2687192 127.35475165 -136.79821717 127.08516466 -148.32776392 126.81756672 C-149.09789315 126.79968934 -149.86802238 126.78181196 -150.66148886 126.76339283 C-153.78862215 126.69080337 -156.91575566 126.61822268 -160.04288947 126.5456556 C-189.22031747 125.86854166 -218.39759992 125.18533595 -247.57481783 124.49923521 C-273.48189247 123.89006833 -299.38908454 123.28615159 -325.29638422 122.68663296 C-354.49300933 122.01097589 -383.68956123 121.33228765 -412.88599741 120.6485112 C-415.9931934 120.57574855 -419.10038952 120.50299217 -422.20758569 120.43023762 C-422.9725098 120.41232409 -423.7374339 120.39441055 -424.52553753 120.37595419 C-436.07662965 120.10549251 -447.62777376 119.83733324 -459.17894495 119.57027134 C-472.27841213 119.26739595 -485.37779475 118.96111524 -498.47707579 118.65028838 C-505.16096898 118.49177564 -511.84489024 118.33490439 -518.52891672 118.18208012 C-524.63615049 118.04239944 -530.74326537 117.89837947 -536.85031262 117.75077458 C-539.06830041 117.69794644 -541.2863278 117.64675295 -543.50439319 117.5972902 C-546.50026293 117.53024599 -549.49593632 117.45743477 -552.49163187 117.38306794 C-553.36845361 117.36483846 -554.24527535 117.34660898 -555.14866745 117.3278271 C-561.09542483 117.17114586 -561.09542483 117.17114586 -563.32372797 116.05699429 C-563.4495606 109.55564145 -563.29723466 103.10351764 -562.96557367 96.61192593 C-561.85716548 74.69367871 -561.98144632 52.76436074 -563.10107172 30.84996304 C-563.38196384 25.24864356 -563.43227081 19.66504128 -563.32372797 14.05699429 C-559.97198275 12.38112168 -556.18267959 12.80765901 -552.49163187 12.73092064 C-551.09567372 12.69626659 -551.09567372 12.69626659 -549.67151439 12.66091245 C-546.5174081 12.58379924 -543.36318495 12.51354945 -540.20892084 12.4432095 C-537.93833032 12.38912846 -535.66774967 12.33463192 -533.39717829 12.27975312 C-527.12852321 12.12947647 -520.85974184 11.98520068 -514.59092462 11.8418698 C-508.53147442 11.70240967 -502.47213147 11.55849705 -496.4127825 11.41471752 C-483.23631914 11.10224712 -470.0597318 10.79527991 -456.88308538 10.4906372 C-445.32454487 10.22339705 -433.76604607 9.95443515 -422.20758569 9.68375096 C-421.44081741 9.66579719 -420.67404912 9.64784342 -419.88404543 9.6293456 C-416.77098827 9.5564535 -413.65793123 9.48355596 -410.54487442 9.4106486 C-381.29291651 8.72561301 -352.04082927 8.04624656 -322.7886826 7.36932511 C-296.88813772 6.76992578 -270.98771966 6.16530652 -245.08739984 5.55626187 C-215.95531235 4.87123813 -186.82314465 4.18978541 -157.69084704 3.51375237 C-154.56981915 3.44131687 -151.44879147 3.36887178 -148.32776392 3.29642186 C-147.17515865 3.26967017 -147.17515865 3.26967017 -145.99926843 3.24237805 C-134.48796107 2.97513949 -122.97671808 2.70524289 -111.465505 2.43397602 C-98.31810713 2.12416347 -85.17062388 1.81828461 -72.02302143 1.51727381 C-65.33386141 1.36403115 -58.64475334 1.20910806 -51.95574319 1.04941639 C-34.63793353 0.63701854 -17.32011287 0.29700009 0 0 Z " fill="#000000" transform="translate(2955.323727965355,1684.9430057108402)"/>
<path d="M0 0 C2.03673225 0.01257536 4.07346954 0.02435405 6.11021066 0.03540045 C30.18498544 0.19797642 54.25528604 0.77090652 78.32300663 1.34549296 C84.42847212 1.49017291 90.53405368 1.62971229 96.63963283 1.76949787 C109.84448971 2.07201882 123.04920229 2.38048352 136.2538578 2.69165711 C147.78330911 2.96333578 159.31280708 3.23292277 170.84235382 3.50052071 C171.61248305 3.51839809 172.38261228 3.53627547 173.17607876 3.5546946 C176.30321206 3.62728405 179.43034556 3.69986475 182.55747938 3.77243183 C211.73490737 4.44954577 240.91218983 5.13275148 270.08940773 5.81885222 C295.99648237 6.4280191 321.90367445 7.03193583 347.81097412 7.63145447 C377.00759924 8.30711154 406.20415114 8.98579978 435.40058732 9.66957623 C438.5077833 9.74233888 441.61497943 9.81509526 444.7221756 9.88784981 C445.86956176 9.91472011 445.86956176 9.91472011 447.04012743 9.94213324 C458.59121956 10.21259492 470.14236367 10.48075419 481.69353485 10.74781609 C494.79300204 11.05069148 507.89238466 11.35697219 520.99166569 11.66779905 C527.67555889 11.82631179 534.35948015 11.98318304 541.04350662 12.13600731 C547.1507404 12.27568799 553.25785528 12.41970796 559.36490253 12.56731284 C561.58289031 12.62014099 563.80091771 12.67133448 566.0189831 12.72079723 C569.01485284 12.78784144 572.01052623 12.86065266 575.00622177 12.93501949 C576.32145439 12.96236371 576.32145439 12.96236371 577.66325736 12.99026033 C583.61001474 13.14694157 583.61001474 13.14694157 585.83831787 14.26109314 C585.96415051 20.76244597 585.81182457 27.21456978 585.48016357 33.7061615 C584.37175539 55.62440872 584.49603622 77.55372669 585.61566162 99.46812439 C585.89655375 105.06944387 585.94686072 110.65304615 585.83831787 116.26109314 C582.48657266 117.93696575 578.69726949 117.51042842 575.00622177 117.58716679 C574.075583 117.61026949 573.14494424 117.63337219 572.1861043 117.65717497 C569.031998 117.73428819 565.87777485 117.80453798 562.72351074 117.87487793 C560.45292023 117.92895897 558.18233957 117.98345551 555.9117682 118.03833431 C549.64311312 118.18861096 543.37433175 118.33288674 537.10551453 118.47621763 C531.04606432 118.61567776 524.98672138 118.75959038 518.92737241 118.9033699 C505.75090904 119.21584031 492.5743217 119.52280752 479.39767529 119.82745023 C467.83913478 120.09469038 456.28063597 120.36365228 444.7221756 120.63433647 C443.95540731 120.65229024 443.18863903 120.67024401 442.39863534 120.68874183 C439.28557817 120.76163393 436.17252113 120.83453147 433.05946433 120.90743882 C403.80750642 121.59247441 374.55541917 122.27184087 345.3032725 122.94876232 C319.40272763 123.54816165 293.50230957 124.15278091 267.60198975 124.76182556 C238.46990225 125.4468493 209.33773456 126.12830202 180.20543694 126.80433506 C177.08440905 126.87677056 173.96338138 126.94921565 170.84235382 127.02166557 C169.68974856 127.04841726 169.68974856 127.04841726 168.51385834 127.07570938 C157.00255098 127.34294794 145.49130798 127.61284454 133.98009491 127.8841114 C120.83269704 128.19392395 107.68521378 128.49980282 94.53761134 128.80081362 C87.84845132 128.95405628 81.15934325 129.10897937 74.4703331 129.26867104 C58.26046439 129.65468493 42.05063549 129.99615065 25.83831787 130.26109314 C24.74148764 130.27990126 23.64465741 130.29870937 22.51458991 130.31808743 C16.06880952 130.42662483 9.62353598 130.51057248 3.17700985 130.55851965 C1.22405413 130.57561351 -0.72885789 130.59934008 -2.68163875 130.63056768 C-22.89305766 130.93922409 -39.95171763 126.77481709 -55.0491333 112.52061462 C-67.99691168 99.72518865 -74.37197524 83.50306304 -74.59918213 65.44859314 C-74.47167183 46.99061581 -67.98923717 31.07720181 -54.98590088 17.92124939 C-47.99161362 11.33326927 -40.19532324 6.55425569 -31.16168213 3.26109314 C-30.50069275 3.01080131 -29.83970337 2.76050947 -29.15868402 2.50263304 C-19.59453645 -0.62916192 -9.93821902 -0.11258222 0 0 Z " fill="#000000" transform="translate(522.1616821289063,1684.7389068603516)"/>
<path d="M0 0 C6.50135283 -0.12583264 12.95347664 0.0264933 19.44506836 0.3581543 C41.36331558 1.46656248 63.29263355 1.34228165 85.20703125 0.22265625 C90.80835073 -0.05823588 96.39195301 -0.10854285 102 0 C103.6736283 3.3472566 103.24927493 7.12769811 103.32607365 10.81368542 C103.34917635 11.74233621 103.37227905 12.67098701 103.39608184 13.62777874 C103.47319468 16.77513212 103.54344475 19.92260261 103.61378479 23.07011414 C103.66786594 25.33586718 103.72236247 27.60161034 103.77724117 29.8673442 C103.92751794 36.12266689 104.07179385 42.37811613 104.21512449 48.63360131 C104.35458531 54.68021764 104.49849808 60.72672693 104.64227676 66.77324172 C104.95475194 79.92209602 105.26171991 93.07107465 105.56635709 106.22011262 C105.83360743 117.75512279 106.1025689 129.29009142 106.37324333 140.82502174 C106.3911971 141.59025856 106.40915087 142.35549537 106.42764869 143.14392118 C106.50054106 146.25078016 106.5734386 149.35763901 106.64634569 152.46449764 C107.33139296 181.65887244 108.01075052 210.85337729 108.68766918 240.04794157 C109.28700377 265.89479172 109.89163133 291.74151296 110.50073242 317.58813477 C111.18585391 346.66126576 111.86731113 375.73447916 112.54324192 404.80782539 C112.615677 407.92297339 112.68812211 411.03812116 112.76057243 414.15326881 C112.77840689 414.92022175 112.79624135 415.68717469 112.81461624 416.47736862 C113.08179314 427.9641965 113.35169938 439.45095809 113.62301826 450.93768883 C113.932928 464.05870532 114.23881211 477.17980923 114.53972048 490.30103537 C114.69289896 496.97614426 114.84779429 503.65119963 115.0075779 510.32615471 C115.39494336 526.54994707 115.73728972 542.77368859 116 559 C116.01880812 560.11179061 116.03761623 561.22358122 116.05699429 562.36906245 C116.16590816 568.94301803 116.24961823 575.51647562 116.29742651 582.09116916 C116.3145309 584.09206311 116.33826693 586.09291428 116.36947454 588.09363797 C116.67297901 608.48220011 112.65690623 625.63838321 98.25952148 640.88745117 C85.46409551 653.83522955 69.2419699 660.21029311 51.1875 660.4375 C32.72952267 660.3099897 16.81610867 653.82755504 3.66015625 640.82421875 C-2.92782387 633.82993149 -7.70683745 626.03364111 -11 617 C-11.25029183 616.33908869 -11.50058367 615.67817738 -11.7584601 614.99723846 C-14.89109646 605.43124501 -14.37367684 595.77177728 -14.26109314 585.83158875 C-14.24851829 583.79468322 -14.23673952 581.75777266 -14.22569269 579.72085828 C-14.06334748 555.68154654 -13.49058838 531.64674849 -12.91560018 507.61451328 C-12.77091262 501.52188203 -12.63137699 495.42913421 -12.49159527 489.33638879 C-12.18907941 476.15914028 -11.88061163 462.98203658 -11.56943603 449.80499003 C-11.29774295 438.29906934 -11.02815693 426.79310156 -10.76057243 415.28708458 C-10.74269505 414.51848682 -10.72481767 413.74988906 -10.70639854 412.95800046 C-10.6338088 409.83706536 -10.56122811 406.71613004 -10.48866131 403.5951944 C-9.8115454 374.47534885 -9.12834636 345.35564892 -8.44224092 316.23601394 C-7.83312984 290.38263479 -7.22920268 264.5291394 -6.62963867 238.67553711 C-5.95389396 209.53786796 -5.27519895 180.40027017 -4.59151691 151.26278609 C-4.51875468 148.16147 -4.44599827 145.06015377 -4.37324333 141.95883751 C-4.3553298 141.19536398 -4.33741627 140.43189045 -4.3189599 139.64528135 C-4.04855643 128.11866906 -3.78038617 116.59200621 -3.51327705 105.06531715 C-3.21031561 91.99223089 -2.90402234 78.91922741 -2.59329409 65.84632335 C-2.43484332 59.17648293 -2.27798894 52.50661193 -2.12508583 45.83664131 C-1.98530696 39.74107695 -1.84128802 33.64562854 -1.6937803 27.55024644 C-1.64099412 25.3376235 -1.58979878 23.12496196 -1.54029591 20.91226313 C-1.47314863 17.92123071 -1.40036317 14.93038881 -1.32607365 11.93952656 C-1.30784417 11.06693617 -1.28961469 10.19434579 -1.27083281 9.29531327 C-1.18328261 5.96897757 -1.05867847 3.17603541 0 0 Z " fill="#000000" transform="translate(1699,2392)"/>
</svg>
